<?xml version="1.0" encoding="UTF-8"?>
<!DOCTYPE svg PUBLIC "-//W3C//DTD SVG 1.1//EN" "http://www.w3.org/Graphics/SVG/1.1/DTD/svg11.dtd">
<!-- Creator: CorelDRAW 2020 (64 Bit) -->
<svg xmlns="http://www.w3.org/2000/svg" xml:space="preserve" width="400.897mm" height="207.459mm" version="1.1" style="shape-rendering:geometricPrecision; text-rendering:geometricPrecision; image-rendering:optimizeQuality; fill-rule:evenodd; clip-rule:evenodd"
viewBox="0 0 40075.47 20738.49"
 xmlns:xlink="http://www.w3.org/1999/xlink"
 xmlns:xodm="http://www.corel.com/coreldraw/odm/2003">
 <defs>
  <style type="text/css">
   <![CDATA[
    .fil0 {fill:white;fill-rule:nonzero}
   ]]>
  </style>
 </defs>
 <g id="Camada_x0020_1">
  <metadata id="CorelCorpID_0Corel-Layer"/>
  <g id="_3215377369616">
   <g>
    <path class="fil0" d="M6000.11 17091.39c-216.6,50.92 -257.33,92.56 -309.17,308.25 -50.91,-216.61 -92.56,-257.33 -308.24,-308.25 216.6,-50.92 257.33,-92.56 308.24,-309.16 54.59,216.6 92.57,258.27 309.17,309.16z"/>
    <path class="fil0" d="M1095.97 11281.03c-233.27,55.55 -277.7,99.96 -333.25,333.25 -54.61,-233.27 -99.96,-277.7 -333.25,-333.25 233.27,-54.6 277.7,-99.03 333.25,-333.24 54.61,234.21 99.95,282.35 333.25,333.24z"/>
    <path class="fil0" d="M9320.43 13877.5c-391.55,92.56 -462.85,166.63 -555.4,555.4 -92.56,-391.55 -166.62,-462.85 -555.39,-555.4 391.54,-92.56 462.84,-166.62 555.39,-555.39 89.79,388.77 163.83,462.84 555.4,555.39z"/>
    <path class="fil0" d="M16563.69 19177.82c-295.27,69.42 -350.83,124.97 -420.23,420.24 -69.42,-295.27 -125.88,-350.83 -421.18,-420.24 295.27,-69.42 351.74,-125.88 421.18,-420.24 69.41,294.37 124.96,350.83 420.23,420.24z"/>
    <path class="fil0" d="M5282.71 12872.24c-398.95,92.56 -474.87,170.31 -569.29,569.29 -92.56,-398.95 -169.4,-474.87 -568.34,-569.29 398.94,-92.56 474.86,-169.4 568.34,-568.35 92.56,398.95 168.48,474.85 569.29,568.35z"/>
    <path class="fil0" d="M12830.53 11160.7c-306.39,72.2 -364.71,130.5 -436.91,436.92 -72.21,-306.39 -130.51,-364.72 -436.92,-436.92 306.39,-72.21 364.71,-130.5 436.92,-436.92 72.2,306.42 130.52,364.74 436.91,436.92z"/>
    <path class="fil0" d="M786.78 19681.38c-225.86,52.75 -268.44,92.56 -321.2,321.2 -52.75,-225.87 -92.56,-268.44 -321.2,-321.2 224.95,-53.69 268.44,-92.56 321.2,-321.2 52.75,224.92 96.28,267.5 321.2,321.2z"/>
    <path class="fil0" d="M7602.41 19237.08c-350.83,82.39 -417.47,149.97 -499.85,500.79 -82.38,-350.83 -149.97,-418.4 -500.79,-500.79 350.83,-82.38 418.41,-149.02 500.79,-500.78 82.38,351.73 149.03,418.4 499.85,500.78z"/>
    <path class="fil0" d="M5149.41 19624.91c-328.62,77.76 -391.55,140.71 -468.38,469.3 -77.76,-328.61 -139.77,-391.54 -468.38,-469.3 328.61,-76.83 390.62,-139.76 468.38,-468.38 76.83,328.62 138.84,391.57 468.38,468.38z"/>
    <path class="fil0" d="M19140.94 15668.42c-386,92.56 -462.85,163.85 -550.77,549.85 -92.56,-386 -163.85,-462.85 -549.85,-549.85 386,-92.56 462.85,-164.77 549.85,-550.76 91.65,385.99 164.77,460.04 550.77,550.76z"/>
    <path class="fil0" d="M1018.21 16359.19c-357.3,84.24 -425.8,152.74 -509.1,509.11 -84.24,-356.37 -152.75,-424.87 -509.11,-509.11 356.36,-84.24 424.87,-151.8 509.11,-509.1 83.3,357.3 151.8,424.86 509.1,509.1z"/>
    <path class="fil0" d="M857.14 13609.98c-286.02,67.59 -340.65,121.28 -407.3,407.3 -67.58,-286.02 -122.19,-339.71 -407.29,-407.3 285.1,-67.58 339.71,-121.27 407.29,-407.29 66.65,286.04 121.28,341.59 407.3,407.29z"/>
    <path class="fil0" d="M19075.01 13018.49c-291.59,69.42 -347.12,124.97 -415.63,416.55 -68.5,-291.59 -124.05,-347.11 -415.63,-416.55 291.59,-68.5 347.11,-124.05 415.63,-415.63 65.72,293.45 121.27,347.14 415.63,415.63z"/>
    <path class="fil0" d="M2822.32 12838.92c-249.01,58.32 -297.13,106.44 -355.45,355.45 -59.24,-249.01 -106.45,-297.13 -356.37,-355.45 249.92,-59.24 297.13,-106.44 356.37,-356.37 58.32,249.93 106.44,297.13 355.45,356.37z"/>
    <path class="fil0" d="M17578.22 11291.23c-257.33,60.18 -306.39,109.21 -370.26,370.26 -60.18,-257.33 -109.22,-306.39 -370.26,-370.26 257.33,-61.1 306.39,-110.16 370.26,-370.26 63.87,260.1 112.93,309.16 370.26,370.26z"/>
    <path class="fil0" d="M10096.12 17772.69c-323.05,75.9 -384.14,137.93 -462.84,462.85 -75.9,-322.14 -137.94,-384.14 -462.85,-462.85 323.06,-75.89 385.09,-136.99 462.85,-462.84 75.92,325.82 137.01,386.91 462.84,462.84z"/>
    <path class="fil0" d="M9562.95 20336.77c-277.69,66.64 -335.08,120.33 -401.74,401.74 -65.73,-277.69 -119.42,-335.08 -400.81,-401.74 277.7,-65.73 335.08,-119.42 400.81,-400.81 66.64,281.39 120.33,335.08 401.74,400.81z"/>
    <path class="fil0" d="M3037.06 20333.97c-260.1,61.09 -309.16,110.15 -370.26,370.26 -61.1,-259.19 -110.16,-308.25 -370.26,-370.26 259.19,-61.1 308.25,-111.08 370.26,-370.26 61.1,259.18 110.16,309.16 370.26,370.26z"/>
    <path class="fil0" d="M7041.46 14257.96c-360.08,84.24 -428.58,153.66 -513.73,512.83 -84.24,-359.17 -152.74,-428.59 -512.83,-512.83 360.09,-85.15 428.59,-153.65 512.83,-513.73 80.52,360.05 149.02,428.58 513.73,513.73z"/>
    <path class="fil0" d="M12510.25 16928.48c-302.7,71.27 -360.08,129.59 -431.35,432.3 -71.27,-302.7 -128.67,-361 -431.36,-432.3 302.7,-71.26 360.08,-128.67 431.36,-431.35 71.26,302.67 128.64,360.08 431.35,431.35z"/>
    <path class="fil0" d="M18383.22 17809.19c-330.45,77.75 -393.4,140.71 -471.15,472.1 -78.67,-331.39 -141.62,-394.32 -472.1,-472.1 330.45,-77.75 393.4,-140.7 472.1,-472.09 81.46,333.24 144.39,394.32 471.15,472.09z"/>
    <path class="fil0" d="M19537.85 19551.79c-401.75,92.56 -477.64,170.32 -572.06,572.06 -92.56,-401.74 -171.26,-477.64 -572.98,-572.06 401.75,-92.56 478.56,-171.25 572.98,-572.97 97.19,401.72 173.09,478.55 572.06,572.97z"/>
    <path class="fil0" d="M8250.36 11572.61c-257.32,61.1 -305.47,109.22 -370.26,370.26 -60.18,-257.32 -109.21,-305.47 -365.62,-370.26 256.41,-60.18 305.47,-109.21 365.62,-365.62 64.81,256.41 112.94,305.47 370.26,365.62z"/>
    <path class="fil0" d="M11854.87 19561.04c-224.01,52.76 -267.52,92.57 -320.28,320.29 -52.75,-224.95 -92.56,-267.52 -320.28,-320.29 224.94,-52.75 267.52,-92.56 320.28,-320.28 55.55,219.38 99.04,262.9 320.28,320.28z"/>
    <path class="fil0" d="M6516.38 11211.8c-398.95,92.56 -474.87,170.32 -569.28,569.29 -92.56,-398.95 -169.4,-474.87 -568.35,-569.29 398.95,-92.56 474.87,-169.39 568.35,-568.34 92.56,398.95 168.48,474.84 569.28,568.34z"/>
    <path class="fil0" d="M4965.88 15030.64c-398.95,92.56 -474.87,170.31 -569.29,569.29 -92.56,-398.95 -169.4,-474.87 -568.35,-569.29 398.95,-92.56 474.87,-169.4 568.35,-568.34 92.56,398.94 168.48,474.84 569.29,568.34z"/>
    <path class="fil0" d="M4104.48 17069.27c-398.95,92.56 -474.87,170.31 -569.29,569.29 -92.56,-398.95 -169.4,-474.87 -568.35,-569.29 398.95,-92.56 474.87,-169.4 568.35,-568.35 92.56,398.95 168.48,474.85 569.29,568.35z"/>
    <path class="fil0" d="M2266.85 18131.65c-398.95,92.57 -474.87,170.32 -569.29,569.29 -92.56,-398.95 -169.4,-474.87 -568.35,-569.29 398.95,-92.56 474.87,-169.39 568.35,-568.34 92.56,398.95 168.48,474.84 569.29,568.34z"/>
    <path class="fil0" d="M11225.32 15030.64c-398.94,92.56 -474.86,170.31 -569.28,569.29 -92.56,-398.95 -169.4,-474.87 -568.35,-569.29 398.95,-92.56 474.87,-169.4 568.35,-568.34 92.56,398.94 168.48,474.84 569.28,568.34z"/>
    <path class="fil0" d="M12976.82 13135.59c-398.95,92.56 -474.87,170.31 -569.29,569.28 -92.56,-398.95 -169.4,-474.87 -568.35,-569.28 398.95,-92.56 474.87,-169.4 568.35,-568.35 92.56,398.95 168.48,474.84 569.29,568.35z"/>
    <path class="fil0" d="M10794.63 11786.06c-398.95,92.56 -474.87,170.32 -569.29,569.29 -92.56,-398.95 -169.4,-474.87 -568.35,-569.29 398.95,-92.56 474.87,-169.39 568.35,-568.34 92.56,398.95 168.48,474.84 569.29,568.34z"/>
    <path class="fil0" d="M14355.05 15030.64c-398.95,92.56 -474.87,170.31 -569.29,569.29 -92.56,-398.95 -169.4,-474.87 -568.35,-569.29 398.95,-92.56 474.87,-169.4 568.35,-568.34 92.56,398.94 168.48,474.84 569.29,568.34z"/>
    <path class="fil0" d="M14412.47 18705.92c-398.95,92.56 -474.87,170.31 -569.29,569.28 -92.56,-398.95 -169.4,-474.87 -568.35,-569.28 398.95,-92.57 474.87,-169.4 568.35,-568.35 92.56,398.95 168.48,474.84 569.29,568.35z"/>
    <path class="fil0" d="M15991.69 16638.57c-398.95,92.56 -474.87,170.31 -569.29,569.29 -92.56,-398.95 -169.39,-474.87 -568.34,-569.29 398.95,-92.56 474.87,-169.4 568.34,-568.35 92.57,398.95 168.48,474.85 569.29,568.35z"/>
    <path class="fil0" d="M2513.34 15002.86c-249.01,58.32 -297.13,106.44 -355.45,355.45 -59.24,-249.01 -106.44,-297.13 -356.37,-355.45 249.93,-59.24 297.13,-106.45 356.37,-356.37 58.32,249.92 106.44,297.13 355.45,356.37z"/>
    <path class="fil0" d="M3748.01 11069.17c-249.01,58.33 -297.13,106.45 -355.45,355.45 -59.24,-249 -106.45,-297.12 -356.37,-355.45 249.92,-59.24 297.13,-106.44 356.37,-356.36 58.32,249.92 106.44,297.12 355.45,356.36z"/>
    <path class="fil0" d="M8526.29 16408.87c-398.95,92.56 -474.87,170.31 -569.28,569.29 -92.57,-398.95 -169.4,-474.87 -568.35,-569.29 398.95,-92.56 474.87,-169.4 568.35,-568.35 92.56,398.95 168.48,474.85 569.28,568.35z"/>
    <path class="fil0" d="M16785.53 13833.29c-386,92.56 -462.85,163.85 -550.77,549.84 -92.56,-385.99 -163.85,-462.84 -549.84,-549.84 385.99,-92.56 462.84,-164.77 549.84,-550.77 91.65,386 164.77,460.05 550.77,550.77z"/>
    <path class="fil0" d="M15416.16 11943.03c-306.39,72.21 -364.71,130.5 -436.92,436.92 -72.2,-306.39 -130.5,-364.71 -436.91,-436.92 306.38,-72.2 364.71,-130.5 436.91,-436.92 72.21,306.42 130.53,364.74 436.92,436.92z"/>
    <path class="fil0" d="M15306.11 10006.07c-398.95,92.56 -474.87,170.32 -569.29,569.29 -92.56,-398.95 -169.39,-474.87 -568.34,-569.29 398.95,-92.56 474.87,-169.39 568.34,-568.34 92.56,398.95 168.48,474.84 569.29,568.34z"/>
   </g>
   <g>
    <path class="fil0" d="M26537.73 17091.39c-216.6,50.92 -257.33,92.56 -309.17,308.25 -50.91,-216.61 -92.56,-257.33 -308.24,-308.25 216.6,-50.92 257.33,-92.56 308.24,-309.16 54.59,216.6 92.57,258.27 309.17,309.16z"/>
    <path class="fil0" d="M21633.59 11281.03c-233.27,55.55 -277.7,99.96 -333.25,333.25 -54.61,-233.27 -99.96,-277.7 -333.25,-333.25 233.27,-54.6 277.7,-99.03 333.25,-333.24 54.61,234.21 99.95,282.35 333.25,333.24z"/>
    <path class="fil0" d="M29858.06 13877.5c-391.55,92.56 -462.85,166.63 -555.4,555.4 -92.56,-391.55 -166.62,-462.85 -555.39,-555.4 391.54,-92.56 462.84,-166.62 555.39,-555.39 89.79,388.77 163.83,462.84 555.4,555.39z"/>
    <path class="fil0" d="M37101.31 19177.82c-295.27,69.42 -350.83,124.97 -420.23,420.24 -69.42,-295.27 -125.88,-350.83 -421.18,-420.24 295.27,-69.42 351.74,-125.88 421.18,-420.24 69.41,294.37 124.96,350.83 420.23,420.24z"/>
    <path class="fil0" d="M25820.34 12872.24c-398.95,92.56 -474.87,170.31 -569.29,569.29 -92.56,-398.95 -169.4,-474.87 -568.34,-569.29 398.94,-92.56 474.86,-169.4 568.34,-568.35 92.56,398.95 168.48,474.85 569.29,568.35z"/>
    <path class="fil0" d="M33368.15 11160.7c-306.39,72.2 -364.71,130.5 -436.91,436.92 -72.21,-306.39 -130.51,-364.72 -436.92,-436.92 306.39,-72.21 364.71,-130.5 436.92,-436.92 72.2,306.42 130.52,364.74 436.91,436.92z"/>
    <path class="fil0" d="M21324.4 19681.38c-225.86,52.75 -268.44,92.56 -321.2,321.2 -52.75,-225.87 -92.56,-268.44 -321.2,-321.2 224.95,-53.69 268.44,-92.56 321.2,-321.2 52.75,224.92 96.28,267.5 321.2,321.2z"/>
    <path class="fil0" d="M28140.03 19237.08c-350.83,82.39 -417.47,149.97 -499.85,500.79 -82.38,-350.83 -149.97,-418.4 -500.79,-500.79 350.83,-82.38 418.41,-149.02 500.79,-500.78 82.38,351.73 149.03,418.4 499.85,500.78z"/>
    <path class="fil0" d="M25687.03 19624.91c-328.62,77.76 -391.55,140.71 -468.38,469.3 -77.76,-328.61 -139.77,-391.54 -468.38,-469.3 328.61,-76.83 390.62,-139.76 468.38,-468.38 76.83,328.62 138.84,391.57 468.38,468.38z"/>
    <path class="fil0" d="M38917.48 15307.67c-386,92.56 -462.85,163.85 -550.77,549.85 -92.56,-386 -163.85,-462.85 -549.85,-549.85 386,-92.56 462.85,-164.77 549.85,-550.77 91.65,386 164.77,460.05 550.77,550.77z"/>
    <path class="fil0" d="M21555.83 16359.19c-357.3,84.24 -425.8,152.74 -509.1,509.11 -84.24,-356.37 -152.75,-424.87 -509.11,-509.11 356.36,-84.24 424.87,-151.8 509.11,-509.1 83.3,357.3 151.8,424.86 509.1,509.1z"/>
    <path class="fil0" d="M21394.76 13609.98c-286.02,67.59 -340.65,121.28 -407.3,407.3 -67.58,-286.02 -122.19,-339.71 -407.29,-407.3 285.1,-67.58 339.71,-121.27 407.29,-407.29 66.65,286.04 121.28,341.59 407.3,407.29z"/>
    <path class="fil0" d="M39612.64 13018.49c-291.59,69.42 -347.12,124.97 -415.63,416.55 -68.5,-291.59 -124.05,-347.11 -415.63,-416.55 291.59,-68.5 347.11,-124.05 415.63,-415.63 65.72,293.45 121.27,347.14 415.63,415.63z"/>
    <path class="fil0" d="M23359.94 12838.92c-249.01,58.32 -297.13,106.44 -355.45,355.45 -59.24,-249.01 -106.45,-297.13 -356.37,-355.45 249.92,-59.24 297.13,-106.44 356.37,-356.37 58.32,249.93 106.44,297.13 355.45,356.37z"/>
    <path class="fil0" d="M38115.84 11291.23c-257.33,60.18 -306.39,109.21 -370.26,370.26 -60.18,-257.33 -109.22,-306.39 -370.26,-370.26 257.33,-61.1 306.39,-110.16 370.26,-370.26 63.87,260.1 112.93,309.16 370.26,370.26z"/>
    <path class="fil0" d="M30633.74 17772.69c-323.05,75.9 -384.14,137.93 -462.84,462.85 -75.9,-322.14 -137.94,-384.14 -462.85,-462.85 323.06,-75.89 385.09,-136.99 462.85,-462.84 75.92,325.82 137.01,386.91 462.84,462.84z"/>
    <path class="fil0" d="M30100.57 20336.77c-277.69,66.64 -335.08,120.33 -401.74,401.74 -65.73,-277.69 -119.42,-335.08 -400.81,-401.74 277.7,-65.73 335.08,-119.42 400.81,-400.81 66.64,281.39 120.33,335.08 401.74,400.81z"/>
    <path class="fil0" d="M23574.68 20333.97c-260.1,61.09 -309.16,110.15 -370.26,370.26 -61.1,-259.19 -110.16,-308.25 -370.26,-370.26 259.19,-61.1 308.25,-111.08 370.26,-370.26 61.1,259.18 110.16,309.16 370.26,370.26z"/>
    <path class="fil0" d="M27579.08 14257.96c-360.08,84.24 -428.58,153.66 -513.73,512.83 -84.24,-359.17 -152.74,-428.59 -512.83,-512.83 360.09,-85.15 428.59,-153.65 512.83,-513.73 80.52,360.05 149.02,428.58 513.73,513.73z"/>
    <path class="fil0" d="M33047.87 16928.48c-302.7,71.27 -360.08,129.59 -431.35,432.3 -71.27,-302.7 -128.67,-361 -431.36,-432.3 302.7,-71.26 360.08,-128.67 431.36,-431.35 71.26,302.67 128.64,360.08 431.35,431.35z"/>
    <path class="fil0" d="M38779.54 17478.33c-330.45,77.75 -393.4,140.7 -471.15,472.09 -78.67,-331.39 -141.62,-394.31 -472.1,-472.09 330.45,-77.75 393.41,-140.71 472.1,-472.1 81.47,333.25 144.39,394.32 471.15,472.1z"/>
    <path class="fil0" d="M40075.48 19551.79c-401.75,92.56 -477.64,170.32 -572.06,572.06 -92.56,-401.74 -171.26,-477.64 -572.98,-572.06 401.75,-92.56 478.56,-171.25 572.98,-572.97 97.19,401.72 173.09,478.55 572.06,572.97z"/>
    <path class="fil0" d="M28787.98 11572.61c-257.33,61.1 -305.47,109.22 -370.26,370.26 -60.18,-257.32 -109.21,-305.47 -365.62,-370.26 256.41,-60.18 305.47,-109.21 365.62,-365.62 64.81,256.41 112.93,305.47 370.26,365.62z"/>
    <path class="fil0" d="M32392.5 19561.04c-224.01,52.76 -267.52,92.57 -320.28,320.29 -52.75,-224.95 -92.56,-267.52 -320.28,-320.29 224.94,-52.75 267.52,-92.56 320.28,-320.28 55.55,219.38 99.04,262.9 320.28,320.28z"/>
    <path class="fil0" d="M27054.01 11211.8c-398.95,92.56 -474.87,170.32 -569.28,569.29 -92.56,-398.95 -169.4,-474.87 -568.35,-569.29 398.95,-92.56 474.87,-169.39 568.35,-568.34 92.56,398.95 168.48,474.84 569.28,568.34z"/>
    <path class="fil0" d="M25503.51 15030.64c-398.95,92.56 -474.87,170.31 -569.29,569.29 -92.56,-398.95 -169.4,-474.87 -568.35,-569.29 398.95,-92.56 474.87,-169.4 568.35,-568.34 92.56,398.94 168.48,474.84 569.29,568.34z"/>
    <path class="fil0" d="M24642.1 17069.27c-398.95,92.56 -474.87,170.31 -569.29,569.29 -92.56,-398.95 -169.4,-474.87 -568.35,-569.29 398.95,-92.56 474.87,-169.4 568.35,-568.35 92.56,398.95 168.48,474.85 569.29,568.35z"/>
    <path class="fil0" d="M22804.48 18131.65c-398.95,92.57 -474.87,170.32 -569.29,569.29 -92.56,-398.95 -169.4,-474.87 -568.35,-569.29 398.95,-92.56 474.87,-169.39 568.35,-568.34 92.56,398.95 168.48,474.84 569.29,568.34z"/>
    <path class="fil0" d="M31762.94 15030.64c-398.94,92.56 -474.86,170.31 -569.28,569.29 -92.56,-398.95 -169.4,-474.87 -568.35,-569.29 398.95,-92.56 474.87,-169.4 568.35,-568.34 92.56,398.94 168.48,474.84 569.28,568.34z"/>
    <path class="fil0" d="M33514.45 13135.59c-398.95,92.56 -474.87,170.31 -569.29,569.28 -92.56,-398.95 -169.4,-474.87 -568.35,-569.28 398.95,-92.56 474.87,-169.4 568.35,-568.35 92.56,398.95 168.48,474.84 569.29,568.35z"/>
    <path class="fil0" d="M31332.26 11786.06c-398.95,92.56 -474.87,170.32 -569.29,569.29 -92.56,-398.95 -169.4,-474.87 -568.35,-569.29 398.95,-92.56 474.87,-169.39 568.35,-568.34 92.56,398.95 168.48,474.84 569.29,568.34z"/>
    <path class="fil0" d="M34892.68 15030.64c-398.95,92.56 -474.87,170.31 -569.29,569.29 -92.56,-398.95 -169.4,-474.87 -568.35,-569.29 398.95,-92.56 474.87,-169.4 568.35,-568.34 92.56,398.94 168.48,474.84 569.29,568.34z"/>
    <path class="fil0" d="M34950.1 18705.92c-398.95,92.56 -474.87,170.31 -569.29,569.28 -92.56,-398.95 -169.4,-474.87 -568.35,-569.28 398.95,-92.57 474.87,-169.4 568.35,-568.35 92.56,398.95 168.48,474.84 569.29,568.35z"/>
    <path class="fil0" d="M36529.32 16638.57c-398.95,92.56 -474.87,170.31 -569.29,569.29 -92.56,-398.95 -169.39,-474.87 -568.34,-569.29 398.95,-92.56 474.87,-169.4 568.34,-568.35 92.57,398.95 168.48,474.85 569.29,568.35z"/>
    <path class="fil0" d="M23050.96 15002.86c-249.01,58.32 -297.13,106.44 -355.45,355.45 -59.24,-249.01 -106.44,-297.13 -356.37,-355.45 249.93,-59.24 297.13,-106.45 356.37,-356.37 58.32,249.92 106.44,297.13 355.45,356.37z"/>
    <path class="fil0" d="M24285.63 11069.17c-249.01,58.33 -297.13,106.45 -355.45,355.45 -59.24,-249 -106.45,-297.12 -356.37,-355.45 249.92,-59.24 297.13,-106.44 356.37,-356.36 58.32,249.92 106.44,297.12 355.45,356.36z"/>
    <path class="fil0" d="M29063.91 16408.87c-398.95,92.56 -474.87,170.31 -569.28,569.29 -92.57,-398.95 -169.4,-474.87 -568.35,-569.29 398.95,-92.56 474.87,-169.4 568.35,-568.35 92.56,398.95 168.48,474.85 569.28,568.35z"/>
    <path class="fil0" d="M37323.15 13833.29c-386,92.56 -462.85,163.85 -550.77,549.84 -92.56,-385.99 -163.85,-462.84 -549.84,-549.84 385.99,-92.56 462.84,-164.77 549.84,-550.77 91.65,386 164.77,460.05 550.77,550.77z"/>
    <path class="fil0" d="M35953.78 11943.03c-306.39,72.21 -364.71,130.5 -436.92,436.92 -72.2,-306.39 -130.5,-364.71 -436.91,-436.92 306.38,-72.2 364.71,-130.5 436.91,-436.92 72.21,306.42 130.53,364.74 436.92,436.92z"/>
    <path class="fil0" d="M35843.73 10006.07c-398.95,92.56 -474.87,170.32 -569.29,569.29 -92.56,-398.95 -169.39,-474.87 -568.34,-569.29 398.95,-92.56 474.87,-169.39 568.34,-568.34 92.56,398.95 168.48,474.84 569.29,568.34z"/>
    <path class="fil0" d="M19733.49 11287.73c-249.01,58.33 -297.13,106.45 -355.45,355.45 -59.24,-249 -106.44,-297.12 -356.37,-355.45 249.93,-59.24 297.13,-106.44 356.37,-356.36 58.32,249.92 106.44,297.12 355.45,356.36z"/>
    <path class="fil0" d="M20422.61 18064.02c-249.01,58.33 -297.13,106.45 -355.45,355.45 -59.24,-249 -106.44,-297.12 -356.37,-355.45 249.93,-59.23 297.13,-106.44 356.37,-356.36 58.32,249.92 106.44,297.13 355.45,356.36z"/>
   </g>
   <g>
    <path class="fil0" d="M26537.73 6447.93c-216.6,50.92 -257.33,92.56 -309.17,308.25 -50.91,-216.61 -92.56,-257.33 -308.24,-308.25 216.6,-50.92 257.33,-92.56 308.24,-309.16 54.59,216.6 92.57,258.27 309.17,309.16z"/>
    <path class="fil0" d="M21633.59 637.57c-233.27,55.54 -277.7,99.95 -333.25,333.24 -54.61,-233.26 -99.96,-277.7 -333.25,-333.24 233.27,-54.61 277.7,-99.04 333.25,-333.25 54.61,234.21 99.95,282.35 333.25,333.25z"/>
    <path class="fil0" d="M29858.06 3234.04c-391.55,92.57 -462.85,166.63 -555.4,555.4 -92.56,-391.55 -166.62,-462.84 -555.39,-555.4 391.54,-92.56 462.84,-166.62 555.39,-555.39 89.79,388.77 163.83,462.84 555.4,555.39z"/>
    <path class="fil0" d="M37101.31 8534.35c-295.27,69.42 -350.83,124.97 -420.23,420.24 -69.42,-295.27 -125.88,-350.83 -421.18,-420.24 295.27,-69.42 351.74,-125.88 421.18,-420.24 69.41,294.37 124.96,350.83 420.23,420.24z"/>
    <path class="fil0" d="M25820.34 2228.78c-398.95,92.56 -474.87,170.31 -569.29,569.29 -92.56,-398.95 -169.4,-474.87 -568.34,-569.29 398.94,-92.56 474.86,-169.4 568.34,-568.34 92.56,398.94 168.48,474.84 569.29,568.34z"/>
    <path class="fil0" d="M33368.15 517.24c-306.39,72.21 -364.71,130.5 -436.91,436.92 -72.21,-306.39 -130.51,-364.71 -436.92,-436.92 306.39,-72.21 364.71,-130.5 436.92,-436.92 72.2,306.42 130.52,364.74 436.91,436.92z"/>
    <path class="fil0" d="M21324.4 9037.92c-225.86,52.75 -268.44,92.56 -321.2,321.2 -52.75,-225.86 -92.56,-268.44 -321.2,-321.2 224.95,-53.69 268.44,-92.56 321.2,-321.2 52.75,224.93 96.28,267.5 321.2,321.2z"/>
    <path class="fil0" d="M28140.03 8593.61c-350.83,82.39 -417.47,149.97 -499.85,500.79 -82.38,-350.83 -149.97,-418.4 -500.79,-500.79 350.83,-82.38 418.41,-149.02 500.79,-500.78 82.38,351.73 149.03,418.4 499.85,500.78z"/>
    <path class="fil0" d="M25687.03 8981.46c-328.62,77.75 -391.55,140.7 -468.38,469.29 -77.76,-328.61 -139.77,-391.54 -468.38,-469.29 328.61,-76.84 390.62,-139.77 468.38,-468.39 76.83,328.62 138.84,391.57 468.38,468.39z"/>
    <path class="fil0" d="M38917.48 4664.2c-386,92.56 -462.85,163.85 -550.77,549.85 -92.56,-386 -163.85,-462.85 -549.85,-549.85 386,-92.56 462.85,-164.77 549.85,-550.77 91.65,386 164.77,460.05 550.77,550.77z"/>
    <path class="fil0" d="M21555.83 5715.73c-357.3,84.24 -425.8,152.75 -509.1,509.11 -84.24,-356.36 -152.75,-424.87 -509.11,-509.11 356.36,-84.24 424.87,-151.8 509.11,-509.1 83.3,357.3 151.8,424.86 509.1,509.1z"/>
    <path class="fil0" d="M21394.76 2966.51c-286.02,67.59 -340.65,121.28 -407.3,407.3 -67.58,-286.02 -122.19,-339.71 -407.29,-407.3 285.1,-67.58 339.71,-121.27 407.29,-407.29 66.65,286.04 121.28,341.59 407.3,407.29z"/>
    <path class="fil0" d="M39612.64 2375.03c-291.59,69.42 -347.12,124.97 -415.63,416.55 -68.5,-291.59 -124.05,-347.11 -415.63,-416.55 291.59,-68.5 347.11,-124.05 415.63,-415.63 65.72,293.45 121.27,347.14 415.63,415.63z"/>
    <path class="fil0" d="M23359.94 2195.46c-249.01,58.32 -297.13,106.44 -355.45,355.45 -59.24,-249.01 -106.45,-297.13 -356.37,-355.45 249.92,-59.24 297.13,-106.44 356.37,-356.37 58.32,249.93 106.44,297.13 355.45,356.37z"/>
    <path class="fil0" d="M38115.84 647.77c-257.33,60.18 -306.39,109.21 -370.26,370.26 -60.18,-257.33 -109.22,-306.39 -370.26,-370.26 257.33,-61.1 306.39,-110.16 370.26,-370.26 63.87,260.1 112.93,309.16 370.26,370.26z"/>
    <path class="fil0" d="M30633.74 7129.22c-323.05,75.9 -384.14,137.94 -462.84,462.85 -75.9,-322.14 -137.94,-384.14 -462.85,-462.85 323.06,-75.89 385.09,-136.99 462.85,-462.84 75.92,325.82 137.01,386.91 462.84,462.84z"/>
    <path class="fil0" d="M30100.57 9693.3c-277.69,66.64 -335.08,120.33 -401.74,401.74 -65.73,-277.69 -119.42,-335.08 -400.81,-401.74 277.7,-65.73 335.08,-119.42 400.81,-400.81 66.64,281.39 120.33,335.08 401.74,400.81z"/>
    <path class="fil0" d="M23574.68 9690.5c-260.1,61.09 -309.16,110.16 -370.26,370.26 -61.1,-259.19 -110.16,-308.25 -370.26,-370.26 259.19,-61.1 308.25,-111.08 370.26,-370.26 61.1,259.18 110.16,309.16 370.26,370.26z"/>
    <path class="fil0" d="M27579.08 3614.5c-360.08,84.24 -428.58,153.65 -513.73,512.82 -84.24,-359.17 -152.74,-428.58 -512.83,-512.82 360.09,-85.16 428.59,-153.66 512.83,-513.74 80.52,360.05 149.02,428.58 513.73,513.74z"/>
    <path class="fil0" d="M33047.87 6285.01c-302.7,71.27 -360.08,129.59 -431.35,432.3 -71.27,-302.7 -128.67,-361 -431.36,-432.3 302.7,-71.26 360.08,-128.67 431.36,-431.35 71.26,302.67 128.64,360.08 431.35,431.35z"/>
    <path class="fil0" d="M38779.54 6834.87c-330.45,77.75 -393.4,140.71 -471.15,472.09 -78.67,-331.38 -141.62,-394.31 -472.1,-472.09 330.45,-77.75 393.41,-140.71 472.1,-472.1 81.47,333.25 144.39,394.32 471.15,472.1z"/>
    <path class="fil0" d="M40075.48 8908.32c-401.75,92.56 -477.64,170.32 -572.06,572.06 -92.56,-401.74 -171.26,-477.64 -572.98,-572.06 401.75,-92.56 478.56,-171.25 572.98,-572.97 97.19,401.72 173.09,478.56 572.06,572.97z"/>
    <path class="fil0" d="M28787.98 929.16c-257.33,61.09 -305.47,109.21 -370.26,370.25 -60.18,-257.32 -109.21,-305.47 -365.62,-370.25 256.41,-60.18 305.47,-109.22 365.62,-365.63 64.81,256.41 112.93,305.47 370.26,365.63z"/>
    <path class="fil0" d="M32612.88 8917.58c-378.15,89.06 -451.62,156.25 -540.67,540.68 -89.06,-379.74 -156.25,-451.62 -540.68,-540.68 379.74,-89.05 451.62,-156.24 540.68,-540.67 93.78,370.34 167.2,443.8 540.67,540.67z"/>
    <path class="fil0" d="M27054.01 568.34c-398.95,92.56 -474.87,170.32 -569.28,569.29 -92.56,-398.95 -169.4,-474.87 -568.35,-569.29 398.95,-92.56 474.87,-169.39 568.35,-568.34 92.56,398.95 168.48,474.84 569.28,568.34z"/>
    <path class="fil0" d="M25503.51 4387.18c-398.95,92.56 -474.87,170.32 -569.29,569.29 -92.56,-398.95 -169.4,-474.87 -568.35,-569.29 398.95,-92.56 474.87,-169.39 568.35,-568.34 92.56,398.95 168.48,474.84 569.29,568.34z"/>
    <path class="fil0" d="M24348.16 6170.17c-398.95,92.56 -474.87,170.32 -569.29,569.29 -92.56,-398.95 -169.4,-474.87 -568.35,-569.29 398.95,-92.56 474.87,-169.39 568.35,-568.34 92.56,398.95 168.48,474.84 569.29,568.34z"/>
    <path class="fil0" d="M22804.49 7827.83c-398.95,92.56 -474.87,170.31 -569.29,569.29 -92.56,-398.95 -169.4,-474.87 -568.34,-569.29 398.94,-92.56 474.86,-169.4 568.34,-568.35 92.56,398.95 168.48,474.85 569.29,568.35z"/>
    <path class="fil0" d="M31762.94 4387.18c-398.94,92.56 -474.86,170.32 -569.28,569.29 -92.56,-398.95 -169.4,-474.87 -568.35,-569.29 398.95,-92.56 474.87,-169.39 568.35,-568.34 92.56,398.95 168.48,474.84 569.28,568.34z"/>
    <path class="fil0" d="M33514.45 2492.12c-398.95,92.56 -474.87,170.31 -569.29,569.28 -92.56,-398.95 -169.4,-474.87 -568.35,-569.28 398.95,-92.56 474.87,-169.4 568.35,-568.35 92.56,398.95 168.48,474.84 569.29,568.35z"/>
    <path class="fil0" d="M31332.26 1142.59c-398.95,92.56 -474.87,170.32 -569.29,569.29 -92.56,-398.95 -169.4,-474.87 -568.35,-569.29 398.95,-92.56 474.87,-169.39 568.35,-568.34 92.56,398.95 168.48,474.84 569.29,568.34z"/>
    <path class="fil0" d="M34892.68 4387.18c-398.95,92.56 -474.87,170.32 -569.29,569.29 -92.56,-398.95 -169.4,-474.87 -568.35,-569.29 398.95,-92.56 474.87,-169.39 568.35,-568.34 92.56,398.95 168.48,474.84 569.29,568.34z"/>
    <path class="fil0" d="M34950.1 8062.45c-398.95,92.56 -474.87,170.31 -569.29,569.28 -92.56,-398.95 -169.4,-474.87 -568.35,-569.28 398.95,-92.56 474.87,-169.4 568.35,-568.35 92.56,398.95 168.48,474.84 569.29,568.35z"/>
    <path class="fil0" d="M36529.32 5995.11c-398.95,92.56 -474.87,170.31 -569.29,569.29 -92.56,-398.95 -169.39,-474.87 -568.34,-569.29 398.95,-92.56 474.87,-169.4 568.34,-568.35 92.57,398.95 168.48,474.85 569.29,568.35z"/>
    <path class="fil0" d="M23050.96 4359.4c-249.01,58.32 -297.13,106.44 -355.45,355.45 -59.24,-249.01 -106.44,-297.13 -356.37,-355.45 249.93,-59.24 297.13,-106.45 356.37,-356.37 58.32,249.92 106.44,297.13 355.45,356.37z"/>
    <path class="fil0" d="M24285.63 425.71c-249.01,58.33 -297.13,106.45 -355.45,355.45 -59.24,-249 -106.45,-297.12 -356.37,-355.45 249.92,-59.24 297.13,-106.44 356.37,-356.36 58.32,249.92 106.44,297.12 355.45,356.36z"/>
    <path class="fil0" d="M29063.91 5765.41c-398.95,92.56 -474.87,170.31 -569.28,569.29 -92.57,-398.95 -169.4,-474.87 -568.35,-569.29 398.95,-92.56 474.87,-169.4 568.35,-568.35 92.56,398.95 168.48,474.85 569.28,568.35z"/>
    <path class="fil0" d="M37323.15 3189.83c-386,92.56 -462.85,163.85 -550.77,549.84 -92.56,-385.99 -163.85,-462.84 -549.84,-549.84 385.99,-92.56 462.84,-164.77 549.84,-550.77 91.65,386 164.77,460.05 550.77,550.77z"/>
    <path class="fil0" d="M35953.78 1299.57c-306.39,72.21 -364.71,130.51 -436.92,436.92 -72.2,-306.39 -130.5,-364.71 -436.91,-436.92 306.38,-72.2 364.71,-130.5 436.91,-436.91 72.21,306.41 130.53,364.73 436.92,436.91z"/>
    <path class="fil0" d="M24475.66 7793.4c-216.6,50.91 -257.33,92.56 -309.16,308.24 -50.92,-216.6 -92.56,-257.33 -308.25,-308.24 216.6,-50.92 257.33,-92.57 308.25,-309.17 54.58,216.6 92.56,258.27 309.16,309.17z"/>
   </g>
   <g>
    <path class="fil0" d="M6000.11 6447.93c-216.6,50.92 -257.33,92.56 -309.17,308.25 -50.91,-216.61 -92.56,-257.33 -308.24,-308.25 216.6,-50.92 257.33,-92.56 308.24,-309.16 54.59,216.6 92.57,258.27 309.17,309.16z"/>
    <path class="fil0" d="M1095.97 637.57c-233.27,55.54 -277.7,99.95 -333.25,333.24 -54.61,-233.26 -99.96,-277.7 -333.25,-333.24 233.27,-54.61 277.7,-99.04 333.25,-333.25 54.61,234.21 99.95,282.35 333.25,333.25z"/>
    <path class="fil0" d="M9320.43 3234.04c-391.55,92.57 -462.85,166.63 -555.4,555.4 -92.56,-391.55 -166.62,-462.84 -555.39,-555.4 391.54,-92.56 462.84,-166.62 555.39,-555.39 89.79,388.77 163.83,462.84 555.4,555.39z"/>
    <path class="fil0" d="M16563.69 8534.35c-295.27,69.42 -350.83,124.97 -420.23,420.24 -69.42,-295.27 -125.88,-350.83 -421.18,-420.24 295.27,-69.42 351.74,-125.88 421.18,-420.24 69.41,294.37 124.96,350.83 420.23,420.24z"/>
    <path class="fil0" d="M5282.71 2228.78c-398.95,92.56 -474.87,170.31 -569.29,569.29 -92.56,-398.95 -169.4,-474.87 -568.34,-569.29 398.94,-92.56 474.86,-169.4 568.34,-568.34 92.56,398.94 168.48,474.84 569.29,568.34z"/>
    <path class="fil0" d="M12830.53 517.24c-306.39,72.21 -364.71,130.5 -436.91,436.92 -72.21,-306.39 -130.51,-364.71 -436.92,-436.92 306.39,-72.21 364.71,-130.5 436.92,-436.92 72.2,306.42 130.52,364.74 436.91,436.92z"/>
    <path class="fil0" d="M786.78 9037.92c-225.86,52.75 -268.44,92.56 -321.2,321.2 -52.75,-225.86 -92.56,-268.44 -321.2,-321.2 224.95,-53.69 268.44,-92.56 321.2,-321.2 52.75,224.93 96.28,267.5 321.2,321.2z"/>
    <path class="fil0" d="M7602.41 8593.61c-350.83,82.39 -417.47,149.97 -499.85,500.79 -82.38,-350.83 -149.97,-418.4 -500.79,-500.79 350.83,-82.38 418.41,-149.02 500.79,-500.78 82.38,351.73 149.03,418.4 499.85,500.78z"/>
    <path class="fil0" d="M5149.41 8981.46c-328.62,77.75 -391.55,140.7 -468.38,469.29 -77.76,-328.61 -139.77,-391.54 -468.38,-469.29 328.61,-76.84 390.62,-139.77 468.38,-468.39 76.83,328.62 138.84,391.57 468.38,468.39z"/>
    <path class="fil0" d="M18379.85 4664.2c-386,92.56 -462.85,163.85 -550.77,549.85 -92.56,-386 -163.85,-462.85 -549.85,-549.85 386,-92.56 462.85,-164.77 549.85,-550.77 91.65,386 164.77,460.05 550.77,550.77z"/>
    <path class="fil0" d="M1018.21 5715.73c-357.3,84.24 -425.8,152.75 -509.1,509.11 -84.24,-356.36 -152.75,-424.87 -509.11,-509.11 356.36,-84.24 424.87,-151.8 509.11,-509.1 83.3,357.3 151.8,424.86 509.1,509.1z"/>
    <path class="fil0" d="M857.14 2966.51c-286.02,67.59 -340.65,121.28 -407.3,407.3 -67.58,-286.02 -122.19,-339.71 -407.29,-407.3 285.1,-67.58 339.71,-121.27 407.29,-407.29 66.65,286.04 121.28,341.59 407.3,407.29z"/>
    <path class="fil0" d="M19075.01 2375.03c-291.59,69.42 -347.12,124.97 -415.63,416.55 -68.5,-291.59 -124.05,-347.11 -415.63,-416.55 291.59,-68.5 347.11,-124.05 415.63,-415.63 65.72,293.45 121.27,347.14 415.63,415.63z"/>
    <path class="fil0" d="M2822.32 2195.46c-249.01,58.32 -297.13,106.44 -355.45,355.45 -59.24,-249.01 -106.45,-297.13 -356.37,-355.45 249.92,-59.24 297.13,-106.44 356.37,-356.37 58.32,249.93 106.44,297.13 355.45,356.37z"/>
    <path class="fil0" d="M17578.22 647.77c-257.33,60.18 -306.39,109.21 -370.26,370.26 -60.18,-257.33 -109.22,-306.39 -370.26,-370.26 257.33,-61.1 306.39,-110.16 370.26,-370.26 63.87,260.1 112.93,309.16 370.26,370.26z"/>
    <path class="fil0" d="M10096.12 7129.22c-323.05,75.9 -384.14,137.94 -462.84,462.85 -75.9,-322.14 -137.94,-384.14 -462.85,-462.85 323.06,-75.89 385.09,-136.99 462.85,-462.84 75.92,325.82 137.01,386.91 462.84,462.84z"/>
    <path class="fil0" d="M9562.95 9693.3c-277.69,66.64 -335.08,120.33 -401.74,401.74 -65.73,-277.69 -119.42,-335.08 -400.81,-401.74 277.7,-65.73 335.08,-119.42 400.81,-400.81 66.64,281.39 120.33,335.08 401.74,400.81z"/>
    <path class="fil0" d="M3037.06 9690.5c-260.1,61.09 -309.16,110.16 -370.26,370.26 -61.1,-259.19 -110.16,-308.25 -370.26,-370.26 259.19,-61.1 308.25,-111.08 370.26,-370.26 61.1,259.18 110.16,309.16 370.26,370.26z"/>
    <path class="fil0" d="M7041.46 3614.5c-360.08,84.24 -428.58,153.65 -513.73,512.82 -84.24,-359.17 -152.74,-428.58 -512.83,-512.82 360.09,-85.16 428.59,-153.66 512.83,-513.74 80.52,360.05 149.02,428.58 513.73,513.74z"/>
    <path class="fil0" d="M12510.25 6285.01c-302.7,71.27 -360.08,129.59 -431.35,432.3 -71.27,-302.7 -128.67,-361 -431.36,-432.3 302.7,-71.26 360.08,-128.67 431.36,-431.35 71.26,302.67 128.64,360.08 431.35,431.35z"/>
    <path class="fil0" d="M18241.91 6834.87c-330.45,77.75 -393.4,140.71 -471.15,472.09 -78.67,-331.38 -141.62,-394.31 -472.1,-472.09 330.45,-77.75 393.41,-140.71 472.1,-472.1 81.47,333.25 144.39,394.32 471.15,472.1z"/>
    <path class="fil0" d="M19537.85 8908.32c-401.75,92.56 -477.64,170.32 -572.06,572.06 -92.56,-401.74 -171.26,-477.64 -572.98,-572.06 401.75,-92.56 478.56,-171.25 572.98,-572.97 97.19,401.72 173.09,478.56 572.06,572.97z"/>
    <path class="fil0" d="M8250.36 929.16c-257.32,61.09 -305.47,109.21 -370.26,370.25 -60.18,-257.32 -109.21,-305.47 -365.62,-370.25 256.41,-60.18 305.47,-109.22 365.62,-365.63 64.81,256.41 112.94,305.47 370.26,365.63z"/>
    <path class="fil0" d="M12075.25 8917.58c-378.15,89.06 -451.62,156.25 -540.67,540.68 -89.06,-379.74 -156.25,-451.62 -540.68,-540.68 379.74,-89.05 451.62,-156.24 540.68,-540.67 93.78,370.34 167.2,443.8 540.67,540.67z"/>
    <path class="fil0" d="M6516.38 568.34c-398.95,92.56 -474.87,170.32 -569.28,569.29 -92.56,-398.95 -169.4,-474.87 -568.35,-569.29 398.95,-92.56 474.87,-169.39 568.35,-568.34 92.56,398.95 168.48,474.84 569.28,568.34z"/>
    <path class="fil0" d="M4965.88 4387.18c-398.95,92.56 -474.87,170.32 -569.29,569.29 -92.56,-398.95 -169.4,-474.87 -568.35,-569.29 398.95,-92.56 474.87,-169.39 568.35,-568.34 92.56,398.95 168.48,474.84 569.29,568.34z"/>
    <path class="fil0" d="M4104.48 6425.8c-398.95,92.56 -474.87,170.31 -569.29,569.29 -92.56,-398.95 -169.4,-474.87 -568.35,-569.29 398.95,-92.56 474.87,-169.4 568.35,-568.35 92.56,398.95 168.48,474.85 569.29,568.35z"/>
    <path class="fil0" d="M2266.85 7488.2c-398.95,92.56 -474.87,170.31 -569.29,569.28 -92.56,-398.95 -169.4,-474.87 -568.35,-569.28 398.95,-92.57 474.87,-169.4 568.35,-568.35 92.56,398.95 168.48,474.84 569.29,568.35z"/>
    <path class="fil0" d="M11225.32 4387.18c-398.94,92.56 -474.86,170.32 -569.28,569.29 -92.56,-398.95 -169.4,-474.87 -568.35,-569.29 398.95,-92.56 474.87,-169.39 568.35,-568.34 92.56,398.95 168.48,474.84 569.28,568.34z"/>
    <path class="fil0" d="M12976.82 2492.12c-398.95,92.56 -474.87,170.31 -569.29,569.28 -92.56,-398.95 -169.4,-474.87 -568.35,-569.28 398.95,-92.56 474.87,-169.4 568.35,-568.35 92.56,398.95 168.48,474.84 569.29,568.35z"/>
    <path class="fil0" d="M10794.63 1142.59c-398.95,92.56 -474.87,170.32 -569.29,569.29 -92.56,-398.95 -169.4,-474.87 -568.35,-569.29 398.95,-92.56 474.87,-169.39 568.35,-568.34 92.56,398.95 168.48,474.84 569.29,568.34z"/>
    <path class="fil0" d="M14355.05 4387.18c-398.95,92.56 -474.87,170.32 -569.29,569.29 -92.56,-398.95 -169.4,-474.87 -568.35,-569.29 398.95,-92.56 474.87,-169.39 568.35,-568.34 92.56,398.95 168.48,474.84 569.29,568.34z"/>
    <path class="fil0" d="M14412.47 8062.45c-398.95,92.56 -474.87,170.31 -569.29,569.28 -92.56,-398.95 -169.4,-474.87 -568.35,-569.28 398.95,-92.56 474.87,-169.4 568.35,-568.35 92.56,398.95 168.48,474.84 569.29,568.35z"/>
    <path class="fil0" d="M15991.69 5995.11c-398.95,92.56 -474.87,170.31 -569.29,569.29 -92.56,-398.95 -169.39,-474.87 -568.34,-569.29 398.95,-92.56 474.87,-169.4 568.34,-568.35 92.57,398.95 168.48,474.85 569.29,568.35z"/>
    <path class="fil0" d="M2513.34 4359.4c-249.01,58.32 -297.13,106.44 -355.45,355.45 -59.24,-249.01 -106.44,-297.13 -356.37,-355.45 249.93,-59.24 297.13,-106.45 356.37,-356.37 58.32,249.92 106.44,297.13 355.45,356.37z"/>
    <path class="fil0" d="M3748.01 425.71c-249.01,58.33 -297.13,106.45 -355.45,355.45 -59.24,-249 -106.45,-297.12 -356.37,-355.45 249.92,-59.24 297.13,-106.44 356.37,-356.36 58.32,249.92 106.44,297.12 355.45,356.36z"/>
    <path class="fil0" d="M8526.29 5765.41c-398.95,92.56 -474.87,170.31 -569.28,569.29 -92.57,-398.95 -169.4,-474.87 -568.35,-569.29 398.95,-92.56 474.87,-169.4 568.35,-568.35 92.56,398.95 168.48,474.85 569.28,568.35z"/>
    <path class="fil0" d="M16785.53 3189.83c-386,92.56 -462.85,163.85 -550.77,549.84 -92.56,-385.99 -163.85,-462.84 -549.84,-549.84 385.99,-92.56 462.84,-164.77 549.84,-550.77 91.65,386 164.77,460.05 550.77,550.77z"/>
    <path class="fil0" d="M15416.16 1299.57c-306.39,72.21 -364.71,130.51 -436.92,436.92 -72.2,-306.39 -130.5,-364.71 -436.91,-436.92 306.38,-72.2 364.71,-130.5 436.91,-436.91 72.21,306.41 130.53,364.73 436.92,436.91z"/>
    <path class="fil0" d="M20088.88 6556.77c-330.45,77.75 -393.4,140.71 -471.15,472.1 -78.67,-331.39 -141.62,-394.32 -472.1,-472.1 330.45,-77.75 393.41,-140.71 472.1,-472.1 81.47,333.25 144.39,394.32 471.15,472.1z"/>
    <path class="fil0" d="M20404.72 4288.44c-330.44,77.75 -393.4,140.71 -471.15,472.1 -78.67,-331.39 -141.62,-394.32 -472.1,-472.1 330.45,-77.75 393.41,-140.71 472.1,-472.09 81.47,333.24 144.4,394.31 471.15,472.09z"/>
    <path class="fil0" d="M19945.32 929c-330.45,77.76 -393.4,140.71 -471.16,472.1 -78.67,-331.39 -141.62,-394.32 -472.09,-472.1 330.45,-77.75 393.4,-140.7 472.09,-472.09 81.47,333.25 144.4,394.32 471.16,472.09z"/>
   </g>
  </g>
 </g>
</svg>
