<?xml version="1.0" encoding="UTF-8"?>
<!DOCTYPE svg PUBLIC "-//W3C//DTD SVG 1.1//EN" "http://www.w3.org/Graphics/SVG/1.1/DTD/svg11.dtd">
<!-- Creator: CorelDRAW 2020 (64 Bit) -->
<svg xmlns="http://www.w3.org/2000/svg" xml:space="preserve" width="884.774mm" height="203.216mm" version="1.1" style="shape-rendering:geometricPrecision; text-rendering:geometricPrecision; image-rendering:optimizeQuality; fill-rule:evenodd; clip-rule:evenodd"
viewBox="0 0 88464.1 20318.57"
 xmlns:xlink="http://www.w3.org/1999/xlink"
 xmlns:xodm="http://www.corel.com/coreldraw/odm/2003">
 <defs>
  <style type="text/css">
   <![CDATA[
    .fil0 {fill:#64D5DD}
   ]]>
  </style>
 </defs>
 <g id="Camada_x0020_1">
  <metadata id="CorelCorpID_0Corel-Layer"/>
  <polygon class="fil0" points="-0,0 1382.25,1244.97 2764.5,0 4146.75,1244.97 5529.01,0 6911.26,1244.97 8293.51,0 9675.76,1244.97 11058.01,0 12440.26,1244.97 13822.52,0 15204.77,1244.97 16587.02,0 17969.27,1244.97 19351.52,0 20733.77,1244.97 22116.03,0 23498.28,1244.97 24880.53,0 26262.78,1244.97 27645.03,0 29027.28,1244.97 30409.54,0 31791.79,1244.97 33174.04,0 34556.29,1244.97 35938.54,0 37320.79,1244.97 38703.04,0 40085.3,1244.97 41467.55,0 42849.8,1244.97 44232.05,0 45614.3,1244.97 46996.55,0 48378.81,1244.97 49761.06,0 51143.31,1244.97 52525.56,0 53907.81,1244.97 55290.06,0 56672.32,1244.97 58054.57,0 59436.82,1244.97 60819.07,0 62201.32,1244.97 63583.57,0 64965.82,1244.97 66348.08,0 67730.33,1244.97 69112.58,0 70494.83,1244.97 71877.08,0 73259.33,1244.97 74641.59,0 76023.84,1244.97 77406.09,0 78788.34,1244.97 80170.59,0 81552.84,1244.97 82935.1,0 84317.35,1244.97 85699.6,0 87081.85,1244.97 88464.1,0 88464.1,1296.27 87081.85,2541.25 85699.6,1296.27 84317.35,2541.25 82935.1,1296.27 81552.84,2541.25 80170.59,1296.27 78788.34,2541.25 77406.09,1296.27 76023.84,2541.25 74641.59,1296.27 73259.33,2541.25 71877.08,1296.27 70494.83,2541.25 69112.58,1296.27 67730.33,2541.25 66348.08,1296.27 64965.82,2541.25 63583.57,1296.27 62201.32,2541.25 60819.07,1296.27 59436.82,2541.25 58054.57,1296.27 56672.32,2541.25 55290.06,1296.27 53907.81,2541.25 52525.56,1296.27 51143.31,2541.25 49761.06,1296.27 48378.81,2541.25 46996.55,1296.27 45614.3,2541.25 44232.05,1296.27 42849.8,2541.25 41467.55,1296.27 40085.3,2541.25 38703.04,1296.27 37320.79,2541.25 35938.54,1296.27 34556.29,2541.25 33174.04,1296.27 31791.79,2541.25 30409.54,1296.27 29027.28,2541.25 27645.03,1296.27 26262.78,2541.25 24880.53,1296.27 23498.28,2541.25 22116.03,1296.27 20733.77,2541.25 19351.52,1296.27 17969.27,2541.25 16587.02,1296.27 15204.77,2541.25 13822.52,1296.27 12440.26,2541.25 11058.01,1296.27 9675.76,2541.25 8293.51,1296.27 6911.26,2541.25 5529.01,1296.27 4146.75,2541.25 2764.5,1296.27 1382.25,2541.25 -0,1296.27 "/>
  <polygon class="fil0" points="-0,2222.16 1382.25,3467.14 2764.5,2222.16 4146.75,3467.14 5529.01,2222.16 6911.26,3467.14 8293.51,2222.16 9675.76,3467.14 11058.01,2222.16 12440.26,3467.14 13822.52,2222.16 15204.77,3467.14 16587.02,2222.16 17969.27,3467.14 19351.52,2222.16 20733.77,3467.14 22116.03,2222.16 23498.28,3467.14 24880.53,2222.16 26262.78,3467.14 27645.03,2222.16 29027.28,3467.14 30409.54,2222.16 31791.79,3467.14 33174.04,2222.16 34556.29,3467.14 35938.54,2222.16 37320.79,3467.14 38703.04,2222.16 40085.3,3467.14 41467.55,2222.16 42849.8,3467.14 44232.05,2222.16 45614.3,3467.14 46996.55,2222.16 48378.81,3467.14 49761.06,2222.16 51143.31,3467.14 52525.56,2222.16 53907.81,3467.14 55290.06,2222.16 56672.32,3467.14 58054.57,2222.16 59436.82,3467.14 60819.07,2222.16 62201.32,3467.14 63583.57,2222.16 64965.82,3467.14 66348.08,2222.16 67730.33,3467.14 69112.58,2222.16 70494.83,3467.14 71877.08,2222.16 73259.33,3467.14 74641.59,2222.16 76023.84,3467.14 77406.09,2222.16 78788.34,3467.14 80170.59,2222.16 81552.84,3467.14 82935.1,2222.16 84317.35,3467.14 85699.6,2222.16 87081.85,3467.14 88464.1,2222.16 88464.1,3518.44 87081.85,4763.41 85699.6,3518.44 84317.35,4763.41 82935.1,3518.44 81552.84,4763.41 80170.59,3518.44 78788.34,4763.41 77406.09,3518.44 76023.84,4763.41 74641.59,3518.44 73259.33,4763.41 71877.08,3518.44 70494.83,4763.41 69112.58,3518.44 67730.33,4763.41 66348.08,3518.44 64965.82,4763.41 63583.57,3518.44 62201.32,4763.41 60819.07,3518.44 59436.82,4763.41 58054.57,3518.44 56672.32,4763.41 55290.06,3518.44 53907.81,4763.41 52525.56,3518.44 51143.31,4763.41 49761.06,3518.44 48378.81,4763.41 46996.55,3518.44 45614.3,4763.41 44232.05,3518.44 42849.8,4763.41 41467.55,3518.44 40085.3,4763.41 38703.04,3518.44 37320.79,4763.41 35938.54,3518.44 34556.29,4763.41 33174.04,3518.44 31791.79,4763.41 30409.54,3518.44 29027.28,4763.41 27645.03,3518.44 26262.78,4763.41 24880.53,3518.44 23498.28,4763.41 22116.03,3518.44 20733.77,4763.41 19351.52,3518.44 17969.27,4763.41 16587.02,3518.44 15204.77,4763.41 13822.52,3518.44 12440.26,4763.41 11058.01,3518.44 9675.76,4763.41 8293.51,3518.44 6911.26,4763.41 5529.01,3518.44 4146.75,4763.41 2764.5,3518.44 1382.25,4763.41 -0,3518.44 "/>
  <polygon class="fil0" points="-0,4444.33 1382.25,5689.3 2764.5,4444.33 4146.75,5689.3 5529.01,4444.33 6911.26,5689.3 8293.51,4444.33 9675.76,5689.3 11058.01,4444.33 12440.26,5689.3 13822.52,4444.33 15204.77,5689.3 16587.02,4444.33 17969.27,5689.3 19351.52,4444.33 20733.77,5689.3 22116.03,4444.33 23498.28,5689.3 24880.53,4444.33 26262.78,5689.3 27645.03,4444.33 29027.28,5689.3 30409.54,4444.33 31791.79,5689.3 33174.04,4444.33 34556.29,5689.3 35938.54,4444.33 37320.79,5689.3 38703.04,4444.33 40085.3,5689.3 41467.55,4444.33 42849.8,5689.3 44232.05,4444.33 45614.3,5689.3 46996.55,4444.33 48378.81,5689.3 49761.06,4444.33 51143.31,5689.3 52525.56,4444.33 53907.81,5689.3 55290.06,4444.33 56672.32,5689.3 58054.57,4444.33 59436.82,5689.3 60819.07,4444.33 62201.32,5689.3 63583.57,4444.33 64965.82,5689.3 66348.08,4444.33 67730.33,5689.3 69112.58,4444.33 70494.83,5689.3 71877.08,4444.33 73259.33,5689.3 74641.59,4444.33 76023.84,5689.3 77406.09,4444.33 78788.34,5689.3 80170.59,4444.33 81552.84,5689.3 82935.1,4444.33 84317.35,5689.3 85699.6,4444.33 87081.85,5689.3 88464.1,4444.33 88464.1,5740.6 87081.85,6985.58 85699.6,5740.6 84317.35,6985.58 82935.1,5740.6 81552.84,6985.58 80170.59,5740.6 78788.34,6985.58 77406.09,5740.6 76023.84,6985.58 74641.59,5740.6 73259.33,6985.58 71877.08,5740.6 70494.83,6985.58 69112.58,5740.6 67730.33,6985.58 66348.08,5740.6 64965.82,6985.58 63583.57,5740.6 62201.32,6985.58 60819.07,5740.6 59436.82,6985.58 58054.57,5740.6 56672.32,6985.58 55290.06,5740.6 53907.81,6985.58 52525.56,5740.6 51143.31,6985.58 49761.06,5740.6 48378.81,6985.58 46996.55,5740.6 45614.3,6985.58 44232.05,5740.6 42849.8,6985.58 41467.55,5740.6 40085.3,6985.58 38703.04,5740.6 37320.79,6985.58 35938.54,5740.6 34556.29,6985.58 33174.04,5740.6 31791.79,6985.58 30409.54,5740.6 29027.28,6985.58 27645.03,5740.6 26262.78,6985.58 24880.53,5740.6 23498.28,6985.58 22116.03,5740.6 20733.77,6985.58 19351.52,5740.6 17969.27,6985.58 16587.02,5740.6 15204.77,6985.58 13822.52,5740.6 12440.26,6985.58 11058.01,5740.6 9675.76,6985.58 8293.51,5740.6 6911.26,6985.58 5529.01,5740.6 4146.75,6985.58 2764.5,5740.6 1382.25,6985.58 -0,5740.6 "/>
  <polygon class="fil0" points="-0,6666.49 1382.25,7911.47 2764.5,6666.49 4146.75,7911.47 5529.01,6666.49 6911.26,7911.47 8293.51,6666.49 9675.76,7911.47 11058.01,6666.49 12440.26,7911.47 13822.52,6666.49 15204.77,7911.47 16587.02,6666.49 17969.27,7911.47 19351.52,6666.49 20733.77,7911.47 22116.03,6666.49 23498.28,7911.47 24880.53,6666.49 26262.78,7911.47 27645.03,6666.49 29027.28,7911.47 30409.54,6666.49 31791.79,7911.47 33174.04,6666.49 34556.29,7911.47 35938.54,6666.49 37320.79,7911.47 38703.04,6666.49 40085.3,7911.47 41467.55,6666.49 42849.8,7911.47 44232.05,6666.49 45614.3,7911.47 46996.55,6666.49 48378.81,7911.47 49761.06,6666.49 51143.31,7911.47 52525.56,6666.49 53907.81,7911.47 55290.06,6666.49 56672.32,7911.47 58054.57,6666.49 59436.82,7911.47 60819.07,6666.49 62201.32,7911.47 63583.57,6666.49 64965.82,7911.47 66348.08,6666.49 67730.33,7911.47 69112.58,6666.49 70494.83,7911.47 71877.08,6666.49 73259.33,7911.47 74641.59,6666.49 76023.84,7911.47 77406.09,6666.49 78788.34,7911.47 80170.59,6666.49 81552.84,7911.47 82935.1,6666.49 84317.35,7911.47 85699.6,6666.49 87081.85,7911.47 88464.1,6666.49 88464.1,7962.77 87081.85,9207.74 85699.6,7962.77 84317.35,9207.74 82935.1,7962.77 81552.84,9207.74 80170.59,7962.77 78788.34,9207.74 77406.09,7962.77 76023.84,9207.74 74641.59,7962.77 73259.33,9207.74 71877.08,7962.77 70494.83,9207.74 69112.58,7962.77 67730.33,9207.74 66348.08,7962.77 64965.82,9207.74 63583.57,7962.77 62201.32,9207.74 60819.07,7962.77 59436.82,9207.74 58054.57,7962.77 56672.32,9207.74 55290.06,7962.77 53907.81,9207.74 52525.56,7962.77 51143.31,9207.74 49761.06,7962.77 48378.81,9207.74 46996.55,7962.77 45614.3,9207.74 44232.05,7962.77 42849.8,9207.74 41467.55,7962.77 40085.3,9207.74 38703.04,7962.77 37320.79,9207.74 35938.54,7962.77 34556.29,9207.74 33174.04,7962.77 31791.79,9207.74 30409.54,7962.77 29027.28,9207.74 27645.03,7962.77 26262.78,9207.74 24880.53,7962.77 23498.28,9207.74 22116.03,7962.77 20733.77,9207.74 19351.52,7962.77 17969.27,9207.74 16587.02,7962.77 15204.77,9207.74 13822.52,7962.77 12440.26,9207.74 11058.01,7962.77 9675.76,9207.74 8293.51,7962.77 6911.26,9207.74 5529.01,7962.77 4146.75,9207.74 2764.5,7962.77 1382.25,9207.74 -0,7962.77 "/>
  <polygon class="fil0" points="-0,8888.66 1382.25,10133.63 2764.5,8888.66 4146.75,10133.63 5529.01,8888.66 6911.26,10133.63 8293.51,8888.66 9675.76,10133.63 11058.01,8888.66 12440.26,10133.63 13822.52,8888.66 15204.77,10133.63 16587.02,8888.66 17969.27,10133.63 19351.52,8888.66 20733.77,10133.63 22116.03,8888.66 23498.28,10133.63 24880.53,8888.66 26262.78,10133.63 27645.03,8888.66 29027.28,10133.63 30409.54,8888.66 31791.79,10133.63 33174.04,8888.66 34556.29,10133.63 35938.54,8888.66 37320.79,10133.63 38703.04,8888.66 40085.3,10133.63 41467.55,8888.66 42849.8,10133.63 44232.05,8888.66 45614.3,10133.63 46996.55,8888.66 48378.81,10133.63 49761.06,8888.66 51143.31,10133.63 52525.56,8888.66 53907.81,10133.63 55290.06,8888.66 56672.32,10133.63 58054.57,8888.66 59436.82,10133.63 60819.07,8888.66 62201.32,10133.63 63583.57,8888.66 64965.82,10133.63 66348.08,8888.66 67730.33,10133.63 69112.58,8888.66 70494.83,10133.63 71877.08,8888.66 73259.33,10133.63 74641.59,8888.66 76023.84,10133.63 77406.09,8888.66 78788.34,10133.63 80170.59,8888.66 81552.84,10133.63 82935.1,8888.66 84317.35,10133.63 85699.6,8888.66 87081.85,10133.63 88464.1,8888.66 88464.1,10184.93 87081.85,11429.91 85699.6,10184.93 84317.35,11429.91 82935.1,10184.93 81552.84,11429.91 80170.59,10184.93 78788.34,11429.91 77406.09,10184.93 76023.84,11429.91 74641.59,10184.93 73259.33,11429.91 71877.08,10184.93 70494.83,11429.91 69112.58,10184.93 67730.33,11429.91 66348.08,10184.93 64965.82,11429.91 63583.57,10184.93 62201.32,11429.91 60819.07,10184.93 59436.82,11429.91 58054.57,10184.93 56672.32,11429.91 55290.06,10184.93 53907.81,11429.91 52525.56,10184.93 51143.31,11429.91 49761.06,10184.93 48378.81,11429.91 46996.55,10184.93 45614.3,11429.91 44232.05,10184.93 42849.8,11429.91 41467.55,10184.93 40085.3,11429.91 38703.04,10184.93 37320.79,11429.91 35938.54,10184.93 34556.29,11429.91 33174.04,10184.93 31791.79,11429.91 30409.54,10184.93 29027.28,11429.91 27645.03,10184.93 26262.78,11429.91 24880.53,10184.93 23498.28,11429.91 22116.03,10184.93 20733.77,11429.91 19351.52,10184.93 17969.27,11429.91 16587.02,10184.93 15204.77,11429.91 13822.52,10184.93 12440.26,11429.91 11058.01,10184.93 9675.76,11429.91 8293.51,10184.93 6911.26,11429.91 5529.01,10184.93 4146.75,11429.91 2764.5,10184.93 1382.25,11429.91 -0,10184.93 "/>
  <polygon class="fil0" points="-0,11110.82 1382.25,12355.8 2764.5,11110.82 4146.75,12355.8 5529.01,11110.82 6911.26,12355.8 8293.51,11110.82 9675.76,12355.8 11058.01,11110.82 12440.26,12355.8 13822.52,11110.82 15204.77,12355.8 16587.02,11110.82 17969.27,12355.8 19351.52,11110.82 20733.77,12355.8 22116.03,11110.82 23498.28,12355.8 24880.53,11110.82 26262.78,12355.8 27645.03,11110.82 29027.28,12355.8 30409.54,11110.82 31791.79,12355.8 33174.04,11110.82 34556.29,12355.8 35938.54,11110.82 37320.79,12355.8 38703.04,11110.82 40085.3,12355.8 41467.55,11110.82 42849.8,12355.8 44232.05,11110.82 45614.3,12355.8 46996.55,11110.82 48378.81,12355.8 49761.06,11110.82 51143.31,12355.8 52525.56,11110.82 53907.81,12355.8 55290.06,11110.82 56672.32,12355.8 58054.57,11110.82 59436.82,12355.8 60819.07,11110.82 62201.32,12355.8 63583.57,11110.82 64965.82,12355.8 66348.08,11110.82 67730.33,12355.8 69112.58,11110.82 70494.83,12355.8 71877.08,11110.82 73259.33,12355.8 74641.59,11110.82 76023.84,12355.8 77406.09,11110.82 78788.34,12355.8 80170.59,11110.82 81552.84,12355.8 82935.1,11110.82 84317.35,12355.8 85699.6,11110.82 87081.85,12355.8 88464.1,11110.82 88464.1,12407.1 87081.85,13652.07 85699.6,12407.1 84317.35,13652.07 82935.1,12407.1 81552.84,13652.07 80170.59,12407.1 78788.34,13652.07 77406.09,12407.1 76023.84,13652.07 74641.59,12407.1 73259.33,13652.07 71877.08,12407.1 70494.83,13652.07 69112.58,12407.1 67730.33,13652.07 66348.08,12407.1 64965.82,13652.07 63583.57,12407.1 62201.32,13652.07 60819.07,12407.1 59436.82,13652.07 58054.57,12407.1 56672.32,13652.07 55290.06,12407.1 53907.81,13652.07 52525.56,12407.1 51143.31,13652.07 49761.06,12407.1 48378.81,13652.07 46996.55,12407.1 45614.3,13652.07 44232.05,12407.1 42849.8,13652.07 41467.55,12407.1 40085.3,13652.07 38703.04,12407.1 37320.79,13652.07 35938.54,12407.1 34556.29,13652.07 33174.04,12407.1 31791.79,13652.07 30409.54,12407.1 29027.28,13652.07 27645.03,12407.1 26262.78,13652.07 24880.53,12407.1 23498.28,13652.07 22116.03,12407.1 20733.77,13652.07 19351.52,12407.1 17969.27,13652.07 16587.02,12407.1 15204.77,13652.07 13822.52,12407.1 12440.26,13652.07 11058.01,12407.1 9675.76,13652.07 8293.51,12407.1 6911.26,13652.07 5529.01,12407.1 4146.75,13652.07 2764.5,12407.1 1382.25,13652.07 -0,12407.1 "/>
  <polygon class="fil0" points="-0,13332.99 1382.25,14577.96 2764.5,13332.99 4146.75,14577.96 5529.01,13332.99 6911.26,14577.96 8293.51,13332.99 9675.76,14577.96 11058.01,13332.99 12440.26,14577.96 13822.52,13332.99 15204.77,14577.96 16587.02,13332.99 17969.27,14577.96 19351.52,13332.99 20733.77,14577.96 22116.03,13332.99 23498.28,14577.96 24880.53,13332.99 26262.78,14577.96 27645.03,13332.99 29027.28,14577.96 30409.54,13332.99 31791.79,14577.96 33174.04,13332.99 34556.29,14577.96 35938.54,13332.99 37320.79,14577.96 38703.04,13332.99 40085.3,14577.96 41467.55,13332.99 42849.8,14577.96 44232.05,13332.99 45614.3,14577.96 46996.55,13332.99 48378.81,14577.96 49761.06,13332.99 51143.31,14577.96 52525.56,13332.99 53907.81,14577.96 55290.06,13332.99 56672.32,14577.96 58054.57,13332.99 59436.82,14577.96 60819.07,13332.99 62201.32,14577.96 63583.57,13332.99 64965.82,14577.96 66348.08,13332.99 67730.33,14577.96 69112.58,13332.99 70494.83,14577.96 71877.08,13332.99 73259.33,14577.96 74641.59,13332.99 76023.84,14577.96 77406.09,13332.99 78788.34,14577.96 80170.59,13332.99 81552.84,14577.96 82935.1,13332.99 84317.35,14577.96 85699.6,13332.99 87081.85,14577.96 88464.1,13332.99 88464.1,14629.26 87081.85,15874.24 85699.6,14629.26 84317.35,15874.24 82935.1,14629.26 81552.84,15874.24 80170.59,14629.26 78788.34,15874.24 77406.09,14629.26 76023.84,15874.24 74641.59,14629.26 73259.33,15874.24 71877.08,14629.26 70494.83,15874.24 69112.58,14629.26 67730.33,15874.24 66348.08,14629.26 64965.82,15874.24 63583.57,14629.26 62201.32,15874.24 60819.07,14629.26 59436.82,15874.24 58054.57,14629.26 56672.32,15874.24 55290.06,14629.26 53907.81,15874.24 52525.56,14629.26 51143.31,15874.24 49761.06,14629.26 48378.81,15874.24 46996.55,14629.26 45614.3,15874.24 44232.05,14629.26 42849.8,15874.24 41467.55,14629.26 40085.3,15874.24 38703.04,14629.26 37320.79,15874.24 35938.54,14629.26 34556.29,15874.24 33174.04,14629.26 31791.79,15874.24 30409.54,14629.26 29027.28,15874.24 27645.03,14629.26 26262.78,15874.24 24880.53,14629.26 23498.28,15874.24 22116.03,14629.26 20733.77,15874.24 19351.52,14629.26 17969.27,15874.24 16587.02,14629.26 15204.77,15874.24 13822.52,14629.26 12440.26,15874.24 11058.01,14629.26 9675.76,15874.24 8293.51,14629.26 6911.26,15874.24 5529.01,14629.26 4146.75,15874.24 2764.5,14629.26 1382.25,15874.24 -0,14629.26 "/>
  <polygon class="fil0" points="-0,15555.15 1382.25,16800.13 2764.5,15555.15 4146.75,16800.13 5529.01,15555.15 6911.26,16800.13 8293.51,15555.15 9675.76,16800.13 11058.01,15555.15 12440.26,16800.13 13822.52,15555.15 15204.77,16800.13 16587.02,15555.15 17969.27,16800.13 19351.52,15555.15 20733.77,16800.13 22116.03,15555.15 23498.28,16800.13 24880.53,15555.15 26262.78,16800.13 27645.03,15555.15 29027.28,16800.13 30409.54,15555.15 31791.79,16800.13 33174.04,15555.15 34556.29,16800.13 35938.54,15555.15 37320.79,16800.13 38703.04,15555.15 40085.3,16800.13 41467.55,15555.15 42849.8,16800.13 44232.05,15555.15 45614.3,16800.13 46996.55,15555.15 48378.81,16800.13 49761.06,15555.15 51143.31,16800.13 52525.56,15555.15 53907.81,16800.13 55290.06,15555.15 56672.32,16800.13 58054.57,15555.15 59436.82,16800.13 60819.07,15555.15 62201.32,16800.13 63583.57,15555.15 64965.82,16800.13 66348.08,15555.15 67730.33,16800.13 69112.58,15555.15 70494.83,16800.13 71877.08,15555.15 73259.33,16800.13 74641.59,15555.15 76023.84,16800.13 77406.09,15555.15 78788.34,16800.13 80170.59,15555.15 81552.84,16800.13 82935.1,15555.15 84317.35,16800.13 85699.6,15555.15 87081.85,16800.13 88464.1,15555.15 88464.1,16851.43 87081.85,18096.4 85699.6,16851.43 84317.35,18096.4 82935.1,16851.43 81552.84,18096.4 80170.59,16851.43 78788.34,18096.4 77406.09,16851.43 76023.84,18096.4 74641.59,16851.43 73259.33,18096.4 71877.08,16851.43 70494.83,18096.4 69112.58,16851.43 67730.33,18096.4 66348.08,16851.43 64965.82,18096.4 63583.57,16851.43 62201.32,18096.4 60819.07,16851.43 59436.82,18096.4 58054.57,16851.43 56672.32,18096.4 55290.06,16851.43 53907.81,18096.4 52525.56,16851.43 51143.31,18096.4 49761.06,16851.43 48378.81,18096.4 46996.55,16851.43 45614.3,18096.4 44232.05,16851.43 42849.8,18096.4 41467.55,16851.43 40085.3,18096.4 38703.04,16851.43 37320.79,18096.4 35938.54,16851.43 34556.29,18096.4 33174.04,16851.43 31791.79,18096.4 30409.54,16851.43 29027.28,18096.4 27645.03,16851.43 26262.78,18096.4 24880.53,16851.43 23498.28,18096.4 22116.03,16851.43 20733.77,18096.4 19351.52,16851.43 17969.27,18096.4 16587.02,16851.43 15204.77,18096.4 13822.52,16851.43 12440.26,18096.4 11058.01,16851.43 9675.76,18096.4 8293.51,16851.43 6911.26,18096.4 5529.01,16851.43 4146.75,18096.4 2764.5,16851.43 1382.25,18096.4 -0,16851.43 "/>
  <polygon class="fil0" points="-0,17777.32 1382.25,19022.29 2764.5,17777.32 4146.75,19022.29 5529.01,17777.32 6911.26,19022.29 8293.51,17777.32 9675.76,19022.29 11058.01,17777.32 12440.26,19022.29 13822.52,17777.32 15204.77,19022.29 16587.02,17777.32 17969.27,19022.29 19351.52,17777.32 20733.77,19022.29 22116.03,17777.32 23498.28,19022.29 24880.53,17777.32 26262.78,19022.29 27645.03,17777.32 29027.28,19022.29 30409.54,17777.32 31791.79,19022.29 33174.04,17777.32 34556.29,19022.29 35938.54,17777.32 37320.79,19022.29 38703.04,17777.32 40085.3,19022.29 41467.55,17777.32 42849.8,19022.29 44232.05,17777.32 45614.3,19022.29 46996.55,17777.32 48378.81,19022.29 49761.06,17777.32 51143.31,19022.29 52525.56,17777.32 53907.81,19022.29 55290.06,17777.32 56672.32,19022.29 58054.57,17777.32 59436.82,19022.29 60819.07,17777.32 62201.32,19022.29 63583.57,17777.32 64965.82,19022.29 66348.08,17777.32 67730.33,19022.29 69112.58,17777.32 70494.83,19022.29 71877.08,17777.32 73259.33,19022.29 74641.59,17777.32 76023.84,19022.29 77406.09,17777.32 78788.34,19022.29 80170.59,17777.32 81552.84,19022.29 82935.1,17777.32 84317.35,19022.29 85699.6,17777.32 87081.85,19022.29 88464.1,17777.32 88464.1,19073.59 87081.85,20318.57 85699.6,19073.59 84317.35,20318.57 82935.1,19073.59 81552.84,20318.57 80170.59,19073.59 78788.34,20318.57 77406.09,19073.59 76023.84,20318.57 74641.59,19073.59 73259.33,20318.57 71877.08,19073.59 70494.83,20318.57 69112.58,19073.59 67730.33,20318.57 66348.08,19073.59 64965.82,20318.57 63583.57,19073.59 62201.32,20318.57 60819.07,19073.59 59436.82,20318.57 58054.57,19073.59 56672.32,20318.57 55290.06,19073.59 53907.81,20318.57 52525.56,19073.59 51143.31,20318.57 49761.06,19073.59 48378.81,20318.57 46996.55,19073.59 45614.3,20318.57 44232.05,19073.59 42849.8,20318.57 41467.55,19073.59 40085.3,20318.57 38703.04,19073.59 37320.79,20318.57 35938.54,19073.59 34556.29,20318.57 33174.04,19073.59 31791.79,20318.57 30409.54,19073.59 29027.28,20318.57 27645.03,19073.59 26262.78,20318.57 24880.53,19073.59 23498.28,20318.57 22116.03,19073.59 20733.77,20318.57 19351.52,19073.59 17969.27,20318.57 16587.02,19073.59 15204.77,20318.57 13822.52,19073.59 12440.26,20318.57 11058.01,19073.59 9675.76,20318.57 8293.51,19073.59 6911.26,20318.57 5529.01,19073.59 4146.75,20318.57 2764.5,19073.59 1382.25,20318.57 -0,19073.59 "/>
 </g>
</svg>
