<svg id="Pattern" xmlns="http://www.w3.org/2000/svg" xmlns:xlink="http://www.w3.org/1999/xlink" viewBox="0 0 5000 3000"><defs><style>.cls-1{fill:none;}.cls-2{fill:#fdffae;}.cls-3{fill:#fffac0;}.cls-4{fill:#ffefc2;}.cls-5{fill:#ff9fe2;}.cls-6{fill:#fde9f1;}.cls-7{fill:#a49fff;}.cls-8{fill:#eab6ff;}.cls-9{fill:#ffeefd;}.cls-10{fill:#fff;}.cls-11{fill:#e9fffd;}.cls-12{fill:#badffb;}.cls-13{fill:#ffc0de;}.cls-14{fill:#f0d4ff;}.cls-15{fill:#ffe;}.cls-16{fill:#ffe1fb;}.cls-17{fill:#a7e4ff;}.cls-18{fill:url(#New_Pattern_Swatch_13);}</style><pattern id="New_Pattern_Swatch_13" data-name="New Pattern Swatch 13" width="500" height="500" patternUnits="userSpaceOnUse" viewBox="0 0 500 500"><rect class="cls-1" width="500" height="500"/><path class="cls-2" d="M90,437.27c-3.51-11.6-5.39-24.15,2.43-34.45,6.45-8.5,16.92-13.79,27.51-14.58,21.87-1.64,40.42,16.28,40.65,38,.07,6.43,10.08,6.45,10,0-.3-27.46-24.27-50.82-52.1-47.9-13.16,1.38-25.59,7.59-33.74,18.16-10,12.93-8.89,28.51-4.39,43.4,1.85,6.14,11.51,3.53,9.64-2.66Z"/><path class="cls-3" d="M103,436c-1.42-12.56-2.11-29.23,13.64-32.27,13.67-2.64,24.18,9.51,25.13,22.28.48,6.38,10.49,6.43,10,0-1.36-18.2-15.73-34.85-35.13-32.34-8.23,1.06-15.91,5.47-20.2,12.7C91.14,415.28,91.89,426.06,93,436c.72,6.32,10.72,6.39,10,0Z"/><path class="cls-4" d="M118.67,434c-.75-2.86-2.7-10,1.44-11.47,4-1.45,5.54,5.62,6,8.09,1.28,6.31,10.92,3.64,9.64-2.65-1.73-8.55-8.45-18.22-18.5-15.05C107,416.11,106.77,428,109,436.61c1.63,6.22,11.28,3.58,9.64-2.66Z"/><path class="cls-3" d="M256.09,372.34c-3.15-16.16,2.32-35.56,22.73-35.84,17-.22,17.54,20.9,17.18,32.59-.2,6.14,9.8,6.14,10,0,.55-17.9-4.06-43.45-28.41-42.09-11.82.67-22.61,6.14-27.94,16.53-5,9.73-5.25,20.86-3.21,31.35,1.18,6,10.82,3.47,9.65-2.54Z"/><path class="cls-5" d="M270.15,374.27c-.86-5-1.09-10.77,1.17-15.57a10.63,10.63,0,0,1,3-4,6.85,6.85,0,0,1,2.36-1.09c2.1-.19,4,1.15,5.39,3.91,2.51,4.91,2.06,10.85,1.37,16.06-.75,5.76,9.25,5.71,10,0,1.37-10.41-.86-30-17.27-28.95s-17.54,21.24-15.69,32c1,5.72,10.61,3.29,9.64-2.4Z"/><path class="cls-6" d="M237.54,371.38c-.27-12.64.49-26.52,7.1-37.66,6.31-10.63,19.14-15,31-15.06a37.4,37.4,0,0,1,28.13,12.13c8.72,9.7,10.72,22.87,9.76,35.46-.79,10.36,15.36,10.31,16.14,0,2-25.77-9.82-50.95-34.89-60.4-23.05-8.68-53.79-.61-65.42,22.1-6.81,13.3-8.32,28.7-8,43.43.22,10.37,16.36,10.41,16.14,0Z"/><path class="cls-7" d="M360,453.91c-2.93-14.11-1.9-29,5.35-41.69,6.16-10.78,16-19,27.34-23.93,19.68-8.69,47.94-8.43,61.94,10.33,9.8,13.14,9,30.73,5.33,45.89-1.51,6.25,8.13,8.92,9.64,2.66,4-16.33,4.73-34.45-3.74-49.55-6.57-11.7-18.18-19.62-31.06-22.88-27.64-7-59.23,4.86-75.45,28.26-10.89,15.71-12.81,35.2-9,53.57,1.31,6.3,10.95,3.63,9.65-2.66Z"/><path class="cls-8" d="M380.37,451.54c-1.21-8.87,0-18,4.08-25.23A32.58,32.58,0,0,1,399,413.07a34.5,34.5,0,0,1,5.15-1.7c.81-.21,1.63-.38,2.44-.55,2-.42.26-.15,1.88-.27a29.19,29.19,0,0,1,9.42.52,19.9,19.9,0,0,1,8.46,3.65c1.34.87,0-.11.93.67a27.43,27.43,0,0,1,2,1.87,12,12,0,0,1,2.73,3.48c4.72,7.66,4.62,17.87,2.29,27.79-2.2,9.39,12.26,13.4,14.46,4,5.17-22.07-.09-46.78-23.62-55-19.09-6.63-40.88,2.19-52,18.48-7.94,11.64-9.14,25.9-7.29,39.5.55,4,5.7,6.22,9.23,5.23,4.33-1.21,5.79-5.18,5.24-9.22Z"/><path class="cls-5" d="M399.2,451.44c-.84-7.56,1.61-17.65,11.11-16.68,8.73.89,8.08,10.39,5,16.78-2.81,5.76,5.81,10.84,8.63,5,3.31-6.79,5.43-14.85,1.89-22a18,18,0,0,0-14.2-9.69c-15.45-1.81-23.92,12.77-22.39,26.54.7,6.33,10.7,6.4,10,0Z"/><path class="cls-9" d="M82.37,292.55c-1.56-9.65-2.74-19.64,2.06-28.59a35,35,0,0,1,18.84-16.43c16.22-5.74,42.18,1.69,47,20.07,2.46,9.33,16.93,5.37,14.46-4-6.88-26.1-41.5-38.84-65.48-30.54a50.46,50.46,0,0,0-27.46,22.7c-7.23,12.93-6.19,26.65-3.92,40.77.65,4,5.63,6.25,9.23,5.24,4.25-1.19,5.89-5.2,5.24-9.23Z"/><path class="cls-10" d="M63.93,297.09c-5.12-16.21-6.28-34.28,1.25-50C71.81,233.27,83.8,224,98.51,220s31.63-2.95,45.1,4.32c13.09,7.07,21.83,19.65,24.76,34.12,1.91,9.45,16.37,5.45,14.46-4-6.24-30.85-33.52-50.2-64.06-51.56C88.42,201.57,60,217.64,49.24,246.58c-6.52,17.46-5.31,37,.22,54.5,2.9,9.17,17.38,5.26,14.47-4Z"/><path class="cls-11" d="M100.31,290.3c-.66-9.3,2.7-17.17,11.88-20.33,8.6-3,16.72.08,22.62,6.65,6.46,7.2,17-3.44,10.61-10.61-9.61-10.69-24.63-15.09-38.31-10.12-14.76,5.37-22.9,18.75-21.8,34.41.67,9.57,15.67,9.65,15,0Z"/><path class="cls-7" d="M325.08,234.78c.46-12.94,2.48-26.9,11.3-37a41.72,41.72,0,0,1,30.72-14.5c25.11-.24,45.39,22.67,40.69,47.65-1.77,9.44,12.68,13.48,14.47,4,6.38-33.93-18.81-65.77-53.6-66.63a56.46,56.46,0,0,0-41.87,17.77c-12.43,13.3-16.08,31.07-16.71,48.73-.35,9.65,14.65,9.64,15,0Z"/><path class="cls-12" d="M345.39,235.35c1.91-12.74,7.62-30.31,23.2-29.64,12.85.56,23.08,12.41,21.25,25.33-.57,4,1,8,5.24,9.23,3.51,1,8.65-1.23,9.22-5.24,3-21.33-10.45-41.39-32.45-44-10.33-1.24-21.2,1.87-28,10.08-7,8.54-11.33,19.41-13,30.28-.6,4,1,8,5.24,9.23,3.53,1,8.63-1.24,9.23-5.24Z"/><path class="cls-13" d="M362.87,238.37c.38-2.7,2.25-11.79,6.45-11.33,3.61.39,3.67,7.71,3.52,10-.61,9.64,14.39,9.6,15,0,.66-10.4-4.59-22.75-15.87-24.71-12.89-2.24-22,10.7-23.56,22-.57,4,1,8,5.23,9.23,3.51,1,8.67-1.23,9.23-5.24Z"/><path class="cls-3" d="M304.91,229.81c2-13.75,4.17-28.25,11.25-40.45,6.7-11.54,17.9-18.74,30.6-22.21,26.23-7.16,59.36-.59,75,23.35,9.53,14.61,9.12,32.07,8.66,48.85-.26,9.66,14.74,9.65,15,0,.48-17.67.4-35.83-8-51.87-7.48-14.2-20.4-25-35.08-31.21-29.37-12.35-71.56-9-93,16.88-12.32,14.91-16.1,34-18.85,52.67-.59,4,1,8,5.24,9.23,3.53,1,8.64-1.24,9.23-5.24Z"/><path class="cls-3" d="M213.76,126.25C199,107.9,208,80.63,229,71.8,240.29,67,251.36,73.43,258.85,82a41.11,41.11,0,0,1,9.91,29.1c-.33,6.44,9.67,6.42,10,0,1.35-26.75-24.55-60.88-53.84-48.41-27.78,11.82-37.27,47-18.23,70.61,4,5,11.07-2.1,7.07-7.07Z"/><path class="cls-3" d="M227.71,120.39c-5.93-8.51-5.09-27.72,5.76-32.33,5.51-2.35,11.12,1.44,14.11,6,3.81,5.74,4.59,13.12,5.52,19.77.88,6.34,10.51,3.64,9.64-2.66-1.32-9.49-3.11-19.5-10.07-26.65-6-6.15-14.86-9-23-5.58-16.25,6.83-20.1,32.92-10.6,46.55,3.65,5.24,12.32.25,8.63-5Z"/><path class="cls-3" d="M240.22,115.72l-.54-7.22c-.09-1.2-.19-2.4-.27-3.61-.06-.55-.09-1.1-.12-1.66.05-1.24-.57-.83-1.88,1.24-.21.64-.95-1.64.13.78.39.88.78,1.73,1.12,2.64.78,2.16,1.41,4.37,2.05,6.58,1.78,6.17,11.44,3.54,9.64-2.66-2-6.79-4.48-17.9-13.63-17.28-10.49.71-7,14.42-6.5,21.19.49,6.38,10.49,6.43,10,0Z"/><path class="cls-8" d="M67,92c-3.36-14.93-.9-32.7,14.65-39.55,11.43-5,25.81-1.7,33.07,8.67,5.62,8,6.35,18.33,4.93,27.75-1,6.29,8.69,9,9.65,2.66,3-20.15-3-41.67-23.76-49.24-16.45-6-35.92.82-44.65,16.05-6.34,11.05-6.26,24.21-3.54,36.32C58.77,101,68.42,98.32,67,92Z"/><path class="cls-14" d="M80,90.23c-1.59-8.68.38-22.12,11.22-23.12,11.58-1.07,13.27,14.12,12.12,22.53-.86,6.29,8.77,9,9.64,2.65,1.24-9,1.13-18.9-4.45-26.61a20.21,20.21,0,0,0-17.31-8.57C73,58.07,67.6,77.83,70.35,92.89c1.15,6.32,10.79,3.65,9.64-2.66Z"/><path class="cls-5" d="M48.66,91C46.23,68.76,53,44.41,75.81,36a47.09,47.09,0,0,1,52.35,14.27c8.65,10.71,11.43,24.58,11,38.06-.22,6.43,9.78,6.43,10,0,.89-27.05-12.24-53-38.79-62.13-22.31-7.71-48.16-.49-61.94,19C39.06,58.31,36.93,75.21,38.66,91c.69,6.32,10.69,6.39,10,0Z"/><path class="cls-15" d="M399.47,67.37c1-10.36,8.07-19.9,19.53-17.51,12.06,2.51,17.41,15,13.23,26-2.28,6,7.38,8.63,9.65,2.66,6.3-16.61-4-35.56-21.69-38.57s-29.07,11.16-30.72,27.44c-.65,6.39,9.36,6.35,10,0Z"/><path class="cls-15" d="M411.94,70.56c-.38-3.1,2-10.21,6.07-8.9,5,1.6,5.18,8.09,3.79,12.09-2.1,6.1,7.55,8.72,9.65,2.66,3.38-9.8-1.06-22.15-11.9-24.75-10.05-2.41-18.72,9.77-17.61,18.9.76,6.31,10.77,6.39,10,0Z"/><path class="cls-15" d="M382.59,61.72c.57-8.19,8.57-18.45,15.3-22.71,8-5,20.46-5.41,29.48-3.56,8.61,1.76,19.7,8,23.6,16.21,4,8.48,2.66,20.82-1.71,28.87-3.07,5.66,5.56,10.71,8.64,5,5.84-10.77,7.36-25.76,2.51-37.2S441.8,28.28,430,25.81s-27.44-1.87-37.82,5c-9.64,6.38-18.81,19.2-19.62,30.93-.44,6.42,9.56,6.39,10,0Z"/><path class="cls-7" d="M40.7,165.51c-9.32,3.35-22.46,15-11.79,24.55,3.87,3.46,10.31,5.28,15.18,3s6.47-7.87,7.08-12.88-.86-10.66-6.05-12.67c-5.45-2.11-11.21,1-13.69,6-2.23,4.49-2.7,11.1,1,15,4,4.14,10.54,3.09,14.18-.91,3.45-3.79,5.92-13.38,1.4-17.17-5.37-4.5-13.12.13-16.47,4.79-3.76,5.24,4.91,10.24,8.64,5.05.25-.35,1.91-1.82,2.27-1.6l-2.29-3c.67,1.69-.64,3.3-.74,4.88a1.27,1.27,0,0,1-.46.59l.78.53c.11-.14,0-1.87.08-2.1A5.14,5.14,0,0,1,41,177.06c.59-.64.59.27.21-.38.58,1,0,3-.25,4.1-.26,1.21-.37,2.9-1.54,3.28-1,.32-3.87-.85-4.29-1.78-1.2-2.7,6.3-6.45,8.2-7.13,6-2.16,3.42-11.83-2.66-9.64Z"/><path class="cls-5" d="M27.7,457.91c-9.27-4.61-14.92,5.69-12.66,13.8,2,7.07,12.53,13.16,18.5,6.51,3-3.33,2.29-7.61,1.11-11.51-1-3.51-2.29-7.59-6.21-8.81-9.71-3-12.78,10.54-9.23,17,4.29,7.8,15.52,2.39,17.72-4.4,1.17-3.61.21-9.4-1.5-12.69s-6.13-4.48-9.76-4.33c-9.33.4-10.16,11.31-8.21,18.31,2.13,7.65,11.34,12.29,19,10.13,9.89-2.78,9.69-15,6.09-22.57-3.83-8-14.83-11.39-20.29-3-3.52,5.41,5.13,10.43,8.64,5.05,1-1.47,3.35,4,3.49,4.46.76,2.56,1.5,6.57-2.1,6.39-3-.14-4.87-1.31-5.45-4.24-.19-1-.77-3.5-.23-4.37-.68-.25-.57-.29.34-.11a1.84,1.84,0,0,1,1.39.53l-2.3-3a18.63,18.63,0,0,1,1.07,4,7.82,7.82,0,0,1,.28,1.93c.15.52-.08.87-.68,1.07l-.94.58c1.6,1.22,2.24,1.2,1.94,0,1.22-2.44-3.24-3.7-3.58-1.91-.11.55.68,2,.88,2.71s.36,1.19.52,1.78c.09.91.41.78,1-.39l-1-.25a2.53,2.53,0,0,1-.78-1.46c-.07-.3-.14-.6-.2-.91.39-1.41-.22-1.95-1.84-1.6,5.75,2.86,10.82-5.76,5.05-8.63Z"/><path class="cls-16" d="M222.58,186c-9.26-4.6-14.91,5.68-12.64,13.78,2,7.06,12.5,13.14,18.47,6.5,3-3.32,2.28-7.6,1.11-11.49-1.06-3.5-2.29-7.58-6.21-8.8-9.7-3-12.76,10.52-9.22,17,4.29,7.8,15.5,2.4,17.7-4.39,1.17-3.6.21-9.37-1.49-12.66s-6.13-4.48-9.75-4.32c-9.32.39-10.15,11.28-8.2,18.27,2.13,7.64,11.32,12.27,19,10.12,9.87-2.79,9.68-15,6.08-22.54-3.82-8-14.8-11.37-20.25-3-3.53,5.41,5.13,10.43,8.63,5,.93-1.43,3.32,4,3.47,4.44.75,2.55,1.49,6.54-2.09,6.36-3-.14-4.84-1.3-5.42-4.22-.19-1-.77-3.47-.23-4.35-.69-.24-.59-.27.32-.1a1.85,1.85,0,0,1,1.38.53c-.76-1-1.53-2-2.3-3a18.38,18.38,0,0,1,1.07,4,8.24,8.24,0,0,1,.28,1.91c.15.52-.07.87-.67,1.06l-.94.59c1.6,1.22,2.26,1.21,2,0,1.21-2.44-3.26-3.67-3.6-1.89-.11.55.68,2,.88,2.7s.36,1.18.51,1.78c.09.9.42.77,1-.41l-1-.25a2.5,2.5,0,0,1-.78-1.45c-.07-.3-.13-.6-.2-.9.39-1.42-.22-2-1.85-1.58,5.75,2.85,10.82-5.77,5.05-8.64Z"/><path class="cls-17" d="M430.66,309.08c-2.28-6.88-11.11-11.62-18.12-10.33a13.92,13.92,0,0,0-11.15,15.77c2.43,16.09,26.86,17.7,31.64,2.33,2.29-7.34-1.48-14.7-8.4-17.81-7.26-3.26-16.19-1-22.36,3.64s-9.51,13.21-4.7,20,15.24,5.57,22.21,3.83c4.18-1,8.65-2.63,10.76-6.72a11.35,11.35,0,0,0-1.4-12c-5.84-7.42-17.57-7.81-22.12.9-3,5.72,6.2,9.7,9.16,4,1-1.94,5.17.21,4.64,2.15s-3.79,2.19-5.7,2.51c-2.33.38-8,1.62-9.54-.69-2.31-3.45,4-7,6.33-7.95,3.13-1.25,7-2,9.93.27,6,4.64-2.45,11.21-7.94,7.57-2.5-1.66-4.11-5.48-.88-7.46,2.83-1.74,7.45,1,8.37,3.79,2,6.11,11.29,2.35,9.27-3.75Z"/><path class="cls-10" d="M297,11.43a12.84,12.84,0,0,0-6.34,12.83c.63,5.42,4.47,9.93,9.15,12.51,2.45,1.35,5.1,2.07,7.67.58,2.32-1.35,4.09-4.3,5.29-6.64,2.51-4.87,3.06-10.91-.65-15.35-3.58-4.29-9.7-4.74-14.28-1.78s-6.46,9-5.75,14.31c.79,5.94,5,8.69,10.57,9.47,5.79.8,11.38-.9,13.32-7,1.75-5.5.75-12.62-4.07-16.25a10.52,10.52,0,0,0-15.23,2.55c-3.5,5.42,5.15,10.44,8.63,5.05-.36.57-.3-.22.34.2a2.34,2.34,0,0,1,.92,1.38,8.07,8.07,0,0,1,0,3.32c-.1.36-.19.73-.29,1.09.39-.23.33-.26-.19-.09a7.37,7.37,0,0,1-3.34-.32c-1.07-.33-.58.14-.82-.53-.42-1.17,0-4.17,1.28-4.83,1.41-.74,1.74.24,1.57,1.78a7.17,7.17,0,0,1-.94,2.41c-.35.62-.74,1.23-1.15,1.82-1.3,1.46-.6,1.51,2.12.18a22.37,22.37,0,0,0-2.25-1.58,6.37,6.37,0,0,1-1.92-2.74,3,3,0,0,1,1.36-3.75c5.63-3.12.59-11.76-5.05-8.64Z"/></pattern></defs><rect class="cls-18" width="5000" height="3000"/></svg>