<svg id="Layer_1" data-name="Layer 1" xmlns="http://www.w3.org/2000/svg" xmlns:xlink="http://www.w3.org/1999/xlink" viewBox="0 0 561.6 289.53"><defs><style>.cls-1{fill:#e6e6e6;}.cls-2{clip-path:url(#clip-path);}.cls-3{fill:#f7b6b5;}.cls-4{fill:#fff;}</style><clipPath id="clip-path" transform="translate(0 0)"><rect class="cls-1" width="561.6" height="288"/></clipPath></defs><rect class="cls-1" width="561.6" height="288"/><g class="cls-2"><rect class="cls-3" x="146.53" y="1.53" width="288" height="288"/><path class="cls-4" d="M403.22,231.68c-3.72.88-4.43,1.59-5.31,5.31-.87-3.72-1.58-4.43-5.31-5.31,3.73-.87,4.44-1.58,5.31-5.31C398.79,230.1,399.5,230.81,403.22,231.68Z" transform="translate(0 0)"/><path class="cls-4" d="M389.21,37.92c-4.43,1-5.27,1.89-6.31,6.31-1-4.42-1.89-5.27-6.31-6.31,4.42-1,5.27-1.88,6.31-6.31C383.94,36,384.78,36.88,389.21,37.92Z" transform="translate(0 0)"/><circle class="cls-4" cx="200.14" cy="198.56" r="5.88"/><path class="cls-4" d="M425.36,100.87c-3.23.76-3.85,1.37-4.61,4.6-.76-3.23-1.38-3.84-4.61-4.6,3.23-.76,3.85-1.38,4.61-4.61C421.51,99.49,422.13,100.11,425.36,100.87Z" transform="translate(0 0)"/><path class="cls-4" d="M215.75,75.32c-2.34.55-2.78,1-3.34,3.33-.55-2.34-1-2.78-3.33-3.33,2.34-.55,2.78-1,3.33-3.34C213,74.32,213.41,74.77,215.75,75.32Z" transform="translate(0 0)"/><path class="cls-4" d="M356.61,209c-2.59.61-3.08,1.1-3.69,3.69-.61-2.59-1.1-3.08-3.69-3.69,2.59-.61,3.08-1.1,3.69-3.69C353.53,207.93,354,208.42,356.61,209Z" transform="translate(0 0)"/><path class="cls-4" d="M162.77,12.55c-2.52.6-3,1.08-3.6,3.6-.59-2.52-1.08-3-3.6-3.6,2.52-.59,3-1.07,3.6-3.6C159.76,11.48,160.25,12,162.77,12.55Z" transform="translate(0 0)"/><path class="cls-4" d="M404.26,190.44c-4.43,1-5.27,1.89-6.31,6.31-1-4.42-1.89-5.27-6.32-6.31,4.43-1,5.28-1.89,6.32-6.32C399,188.55,399.83,189.4,404.26,190.44Z" transform="translate(0 0)"/><path class="cls-4" d="M251.62,40.6c-4.23,1-5,1.8-6,6-1-4.23-1.8-5-6-6,4.23-1,5-1.8,6-6C246.59,38.8,247.39,39.6,251.62,40.6Z" transform="translate(0 0)"/><path class="cls-4" d="M191.67,135.89c-3.39.79-4,1.44-4.83,4.83-.8-3.39-1.45-4-4.83-4.83,3.38-.8,4-1.45,4.83-4.83C187.63,134.44,188.28,135.09,191.67,135.89Z" transform="translate(0 0)"/><circle class="cls-4" cx="300.39" cy="201.48" r="5.08"/><path class="cls-4" d="M329.87,97.86c-3.19.75-3.79,1.35-4.54,4.54-.75-3.19-1.36-3.79-4.55-4.54,3.19-.75,3.8-1.36,4.55-4.54C326.08,96.5,326.68,97.11,329.87,97.86Z" transform="translate(0 0)"/><path class="cls-4" d="M426.06,272.32c-3.71.87-4.42,1.58-5.29,5.29-.87-3.71-1.58-4.42-5.29-5.29,3.71-.87,4.42-1.58,5.29-5.29C421.64,270.74,422.35,271.45,426.06,272.32Z" transform="translate(0 0)"/><path class="cls-4" d="M311.45,119.19c-3.34.79-4,1.42-4.76,4.76-.79-3.34-1.42-4-4.76-4.76,3.34-.78,4-1.42,4.76-4.76C307.47,117.77,308.11,118.41,311.45,119.19Z" transform="translate(0 0)"/><path class="cls-4" d="M295.71,277.52c-2.33.55-2.77,1-3.32,3.32-.55-2.32-1-2.77-3.32-3.32,2.33-.54,2.77-1,3.32-3.31C292.94,276.53,293.38,277,295.71,277.52Z" transform="translate(0 0)"/><path class="cls-4" d="M384.4,111.61c-4.51,1.06-5.37,1.92-6.43,6.43-1.06-4.51-1.92-5.37-6.43-6.43,4.51-1.06,5.37-1.92,6.43-6.43C379,109.69,379.89,110.55,384.4,111.61Z" transform="translate(0 0)"/><path class="cls-4" d="M208,29.74c-4.31,1-5.13,1.84-6.15,6.15-1-4.31-1.83-5.13-6.14-6.15,4.31-1,5.13-1.83,6.14-6.14C202.85,27.91,203.67,28.73,208,29.74Z" transform="translate(0 0)"/><path class="cls-4" d="M376.33,240.63c-3.36.79-4,1.43-4.8,4.8-.79-3.37-1.43-4-4.8-4.8,3.37-.79,4-1.44,4.8-4.8C372.32,239.19,373,239.84,376.33,240.63Z" transform="translate(0 0)"/><path class="cls-4" d="M289.54,11.25c-3.31.78-3.94,1.41-4.72,4.72-.78-3.31-1.41-3.94-4.72-4.72,3.31-.78,3.94-1.41,4.72-4.72C285.6,9.84,286.23,10.47,289.54,11.25Z" transform="translate(0 0)"/><path class="cls-4" d="M159.43,103.3c-2.44.57-2.9,1-3.47,3.47-.57-2.44-1-2.9-3.47-3.47,2.43-.58,2.9-1,3.47-3.47C156.53,102.26,157,102.72,159.43,103.3Z" transform="translate(0 0)"/><path class="cls-4" d="M233.06,98.5c-3.79.89-4.51,1.62-5.4,5.41-.89-3.79-1.62-4.52-5.41-5.41,3.79-.89,4.52-1.61,5.41-5.41C228.55,96.89,229.27,97.61,233.06,98.5Z" transform="translate(0 0)"/><path class="cls-4" d="M402.67,255c-3.55.84-4.22,1.51-5.06,5.06-.83-3.55-1.51-4.22-5.06-5.06,3.55-.83,4.23-1.51,5.06-5.06C398.45,253.51,399.12,254.19,402.67,255Z" transform="translate(0 0)"/><path class="cls-4" d="M422.7,163.78c-4,.94-4.76,1.71-5.7,5.7-.94-4-1.7-4.76-5.7-5.7,4-.94,4.76-1.7,5.7-5.7C417.94,162.08,418.71,162.84,422.7,163.78Z" transform="translate(0 0)"/><path class="cls-4" d="M165.57,157.81c-4,.94-4.77,1.7-5.71,5.71-.94-4-1.7-4.77-5.71-5.71,4-.95,4.77-1.71,5.71-5.71C160.8,156.1,161.57,156.86,165.57,157.81Z" transform="translate(0 0)"/><path class="cls-4" d="M371,52.21c-2.57.61-3.06,1.1-3.67,3.67-.61-2.57-1.1-3.06-3.67-3.67,2.57-.61,3.06-1.1,3.67-3.67C367.92,51.11,368.41,51.6,371,52.21Z" transform="translate(0 0)"/><circle class="cls-4" cx="278.91" cy="126.88" r="3.53"/><circle class="cls-4" cx="419.02" cy="73.37" r="4.24"/><path class="cls-4" d="M402.65,277.11c-2.53.59-3,1.08-3.61,3.61-.6-2.53-1.08-3-3.61-3.61,2.53-.6,3-1.08,3.61-3.61C399.63,276,400.12,276.51,402.65,277.11Z" transform="translate(0 0)"/><circle class="cls-4" cx="291.72" cy="231.46" r="3.67"/><circle class="cls-4" cx="187.06" cy="10.58" r="4.86"/><path class="cls-4" d="M398.62,63.24c-2.41.57-2.87,1-3.43,3.44-.57-2.41-1-2.87-3.44-3.44,2.41-.56,2.87-1,3.44-3.43C395.75,62.22,396.21,62.68,398.62,63.24Z" transform="translate(0 0)"/><circle class="cls-4" cx="187.78" cy="75.06" r="5.73"/><path class="cls-4" d="M192.62,245.77c-3.5.83-4.16,1.49-5,5-.82-3.5-1.48-4.16-5-5,3.5-.82,4.16-1.48,5-5C188.46,244.29,189.12,245,192.62,245.77Z" transform="translate(0 0)"/><path class="cls-4" d="M164,130.72c-3.11.74-3.71,1.33-4.44,4.44-.73-3.11-1.32-3.7-4.43-4.44,3.11-.73,3.7-1.32,4.43-4.43C160.31,129.4,160.91,130,164,130.72Z" transform="translate(0 0)"/><path class="cls-4" d="M164.78,234.21c-3.41.8-4.06,1.45-4.87,4.86-.8-3.41-1.45-4.06-4.86-4.86,3.41-.81,4.06-1.46,4.86-4.87C160.72,232.75,161.37,233.4,164.78,234.21Z" transform="translate(0 0)"/><path class="cls-4" d="M255.31,197.8c-2.76.64-3.29,1.17-3.94,3.93-.65-2.76-1.17-3.29-3.94-3.93,2.77-.65,3.29-1.18,3.94-3.94C252,196.62,252.55,197.15,255.31,197.8Z" transform="translate(0 0)"/><circle class="cls-4" cx="268.4" cy="151.75" r="3.62"/><circle class="cls-4" cx="338.98" cy="122.56" r="6.45"/><circle class="cls-4" cx="317.23" cy="68.58" r="4.27"/><circle class="cls-4" cx="185.65" cy="217.78" r="4.28"/><circle class="cls-4" cx="419.12" cy="15.02" r="3.44"/><path class="cls-4" d="M423,216.66c-4,.94-4.73,1.69-5.67,5.66-.93-4-1.69-4.72-5.66-5.66,4-.93,4.73-1.69,5.66-5.66C418.3,215,419.05,215.73,423,216.66Z" transform="translate(0 0)"/><path class="cls-4" d="M215,173.56c-2.76.65-3.29,1.17-3.94,3.93-.64-2.76-1.17-3.28-3.93-3.93,2.76-.65,3.29-1.18,3.93-3.93C211.69,172.38,212.22,172.91,215,173.56Z" transform="translate(0 0)"/><circle class="cls-4" cx="299.9" cy="90.93" r="4.91"/><circle class="cls-4" cx="219.56" cy="272.47" r="5.12"/><path class="cls-4" d="M374.87,77.37c-3.21.75-3.82,1.37-4.57,4.57-.76-3.2-1.37-3.82-4.58-4.57,3.21-.76,3.82-1.37,4.58-4.58C371.05,76,371.66,76.61,374.87,77.37Z" transform="translate(0 0)"/><path class="cls-4" d="M206.56,102.69c-3.55.84-4.23,1.52-5.06,5.07-.84-3.55-1.51-4.23-5.06-5.07,3.55-.83,4.22-1.51,5.06-5.06C202.33,101.18,203,101.86,206.56,102.69Z" transform="translate(0 0)"/><path class="cls-4" d="M336.61,180.52c-2.45.58-2.92,1-3.49,3.5-.58-2.45-1.05-2.92-3.5-3.5,2.45-.57,2.92-1,3.5-3.49C333.69,179.48,334.16,180,336.61,180.52Z" transform="translate(0 0)"/><path class="cls-4" d="M349.49,56.05c-4.17,1-5,1.77-5.95,5.94-1-4.17-1.77-5-5.94-5.94,4.17-1,5-1.78,5.94-5.95C344.53,54.27,345.32,55.07,349.49,56.05Z" transform="translate(0 0)"/><path class="cls-4" d="M161.93,67.41c-3.86.91-4.6,1.65-5.5,5.5-.91-3.85-1.65-4.59-5.5-5.5,3.85-.91,4.59-1.64,5.5-5.5C157.33,65.77,158.07,66.5,161.93,67.41Z" transform="translate(0 0)"/><path class="cls-4" d="M350.09,240.62c-3,.72-3.62,1.3-4.34,4.34-.71-3-1.29-3.62-4.33-4.34,3-.71,3.62-1.29,4.33-4.33C346.47,239.33,347.05,239.91,350.09,240.62Z" transform="translate(0 0)"/><path class="cls-4" d="M398.2,90c-2.62.62-3.12,1.12-3.73,3.73-.62-2.61-1.11-3.11-3.73-3.73,2.62-.61,3.11-1.11,3.73-3.73C395.08,88.92,395.58,89.42,398.2,90Z" transform="translate(0 0)"/><circle class="cls-4" cx="303.37" cy="174.96" r="5.71"/><circle class="cls-4" cx="404.47" cy="36.74" r="3.54"/><circle class="cls-4" cx="236.64" cy="67.84" r="3.89"/><path class="cls-4" d="M166.69,276.37c-3.78.89-4.51,1.61-5.4,5.4-.89-3.79-1.61-4.51-5.39-5.4,3.78-.89,4.5-1.61,5.39-5.4C162.18,274.76,162.91,275.48,166.69,276.37Z" transform="translate(0 0)"/><circle class="cls-4" cx="257.91" cy="251.88" r="5.87"/><path class="cls-4" d="M244.2,161c-3.45.81-4.11,1.47-4.92,4.92-.81-3.45-1.47-4.11-4.92-4.92,3.45-.81,4.11-1.47,4.92-4.92C240.09,159.54,240.75,160.2,244.2,161Z" transform="translate(0 0)"/><path class="cls-4" d="M315.77,258.52c-4.46,1.05-5.32,1.9-6.37,6.36-1-4.46-1.9-5.31-6.36-6.36,4.46-1,5.31-1.91,6.36-6.37C310.45,256.61,311.31,257.47,315.77,258.52Z" transform="translate(0 0)"/><path class="cls-4" d="M235.91,188.52c-4.5,1.06-5.35,1.92-6.41,6.41-1.06-4.49-1.91-5.35-6.4-6.41,4.49-1.05,5.34-1.91,6.4-6.4C230.56,186.61,231.41,187.47,235.91,188.52Z" transform="translate(0 0)"/><path class="cls-4" d="M329.83,209.18c-2.86.67-3.41,1.21-4.08,4.07-.67-2.86-1.21-3.4-4.07-4.07,2.86-.68,3.4-1.22,4.07-4.08C326.42,208,327,208.5,329.83,209.18Z" transform="translate(0 0)"/><path class="cls-4" d="M285.51,257.37c-3.65.86-4.34,1.56-5.2,5.2-.86-3.64-1.55-4.34-5.2-5.2,3.65-.85,4.34-1.55,5.2-5.2C281.17,255.82,281.86,256.52,285.51,257.37Z" transform="translate(0 0)"/><path class="cls-4" d="M160.19,37.71c-3.09.73-3.68,1.31-4.4,4.4-.73-3.09-1.32-3.67-4.4-4.4,3.08-.73,3.67-1.31,4.4-4.4C156.51,36.4,157.1,37,160.19,37.71Z" transform="translate(0 0)"/><path class="cls-4" d="M357,31.32c-3.15.75-3.75,1.35-4.49,4.5-.74-3.15-1.34-3.75-4.49-4.5,3.15-.74,3.75-1.34,4.49-4.49C353.22,30,353.82,30.58,357,31.32Z" transform="translate(0 0)"/><path class="cls-4" d="M181.42,29.38c-2.69.63-3.21,1.15-3.84,3.84-.64-2.69-1.15-3.21-3.85-3.84,2.7-.64,3.21-1.15,3.85-3.85C178.21,28.23,178.73,28.74,181.42,29.38Z" transform="translate(0 0)"/><path class="cls-4" d="M359.3,270.87c-2.8.66-3.34,1.19-4,4-.66-2.81-1.19-3.34-4-4,2.8-.66,3.33-1.19,4-4C356,269.68,356.5,270.21,359.3,270.87Z" transform="translate(0 0)"/><circle class="cls-4" cx="233.04" cy="249.26" r="4.9"/><path class="cls-4" d="M424.42,135.39c-3,.69-3.52,1.25-4.22,4.21-.69-3-1.25-3.52-4.21-4.21,3-.7,3.52-1.26,4.21-4.22C420.9,134.13,421.46,134.69,424.42,135.39Z" transform="translate(0 0)"/><path class="cls-4" d="M167.93,256.18c-3.83.9-4.56,1.63-5.45,5.46-.9-3.83-1.63-4.56-5.46-5.46,3.83-.9,4.56-1.63,5.46-5.45C163.37,254.55,164.1,255.28,167.93,256.18Z" transform="translate(0 0)"/><path class="cls-4" d="M340.83,12.66c-2.78.65-3.31,1.18-4,4-.65-2.78-1.18-3.31-4-4,2.78-.66,3.31-1.19,4-4C337.52,11.47,338.05,12,340.83,12.66Z" transform="translate(0 0)"/><path class="cls-4" d="M426.58,244.58c-4.07,1-4.84,1.74-5.8,5.8-.95-4.06-1.73-4.84-5.8-5.8,4.07-1,4.85-1.73,5.8-5.8C421.74,242.85,422.51,243.63,426.58,244.58Z" transform="translate(0 0)"/><path class="cls-4" d="M323.88,145.46c-2.6.61-3.1,1.11-3.71,3.7-.61-2.59-1.1-3.09-3.7-3.7,2.6-.61,3.09-1.11,3.7-3.71C320.78,144.35,321.28,144.85,323.88,145.46Z" transform="translate(0 0)"/><path class="cls-4" d="M375.5,189c-3.11.74-3.71,1.33-4.44,4.44-.73-3.11-1.32-3.7-4.43-4.44,3.11-.73,3.7-1.32,4.43-4.43C371.79,187.67,372.39,188.26,375.5,189Z" transform="translate(0 0)"/><circle class="cls-4" cx="169.07" cy="86.31" r="5.24"/><path class="cls-4" d="M260,82.68c-3.49.82-4.15,1.49-5,5-.82-3.48-1.49-4.15-5-5,3.49-.82,4.16-1.48,5-5C255.82,81.2,256.48,81.86,260,82.68Z" transform="translate(0 0)"/><circle class="cls-4" cx="257.79" cy="227.95" r="6.21"/><circle class="cls-4" cx="214.01" cy="12.59" r="6.25"/><path class="cls-4" d="M387.08,213.74c-3.56.84-4.24,1.52-5.08,5.08-.83-3.56-1.51-4.24-5.07-5.08,3.56-.83,4.24-1.51,5.07-5.07C382.84,212.23,383.52,212.91,387.08,213.74Z" transform="translate(0 0)"/><circle class="cls-4" cx="219.18" cy="127.17" r="4.75"/><path class="cls-4" d="M408.47,115.74c-3.21.76-3.82,1.37-4.57,4.58-.76-3.21-1.37-3.82-4.58-4.58,3.21-.75,3.82-1.36,4.58-4.57C404.65,114.38,405.26,115,408.47,115.74Z" transform="translate(0 0)"/><circle class="cls-4" cx="295.66" cy="149.84" r="5.02"/><path class="cls-4" d="M426.11,46c-3,.71-3.6,1.28-4.31,4.3-.71-3-1.29-3.59-4.31-4.3,3-.71,3.6-1.29,4.31-4.31C422.51,44.66,423.09,45.24,426.11,46Z" transform="translate(0 0)"/><path class="cls-4" d="M250.71,134.55c-2.41.56-2.86,1-3.43,3.42-.56-2.4-1-2.86-3.42-3.42,2.4-.57,2.86-1,3.42-3.43C247.85,133.52,248.3,134,250.71,134.55Z" transform="translate(0 0)"/><path class="cls-4" d="M396.29,138.29c-2.41.56-2.86,1-3.43,3.42-.57-2.4-1-2.86-3.43-3.42,2.41-.57,2.86-1,3.43-3.43C393.43,137.26,393.88,137.72,396.29,138.29Z" transform="translate(0 0)"/><path class="cls-4" d="M324,235.76c-2.51.59-3,1.07-3.58,3.58-.59-2.51-1.07-3-3.58-3.58,2.51-.59,3-1.07,3.58-3.58C321,234.69,321.45,235.17,324,235.76Z" transform="translate(0 0)"/><circle class="cls-4" cx="163.36" cy="186.65" r="4.03"/><circle class="cls-4" cx="420.84" cy="191.26" r="5.85"/><path class="cls-4" d="M254.24,110.38c-3,.72-3.62,1.3-4.34,4.34-.71-3-1.29-3.62-4.33-4.34,3-.71,3.62-1.29,4.33-4.33C250.62,109.09,251.2,109.67,254.24,110.38Z" transform="translate(0 0)"/><path class="cls-4" d="M198,272.47c-4.48,1-5.34,1.9-6.39,6.38-1.05-4.48-1.91-5.33-6.39-6.38,4.48-1.06,5.34-1.91,6.39-6.39C192.61,270.56,193.47,271.41,198,272.47Z" transform="translate(0 0)"/><path class="cls-4" d="M183.74,110.35c-2.81.66-3.34,1.19-4,4-.66-2.8-1.19-3.33-4-4,2.8-.66,3.33-1.2,4-4C180.4,109.15,180.93,109.69,183.74,110.35Z" transform="translate(0 0)"/><path class="cls-4" d="M398.36,13.46c-3.71.87-4.41,1.58-5.29,5.29-.87-3.71-1.58-4.42-5.29-5.29,3.71-.88,4.42-1.58,5.29-5.29C394,11.88,394.65,12.58,398.36,13.46Z" transform="translate(0 0)"/><path class="cls-4" d="M215.35,236.94c-3.84.91-4.57,1.64-5.47,5.47-.9-3.83-1.63-4.56-5.47-5.47,3.84-.9,4.57-1.63,5.47-5.46C210.78,235.31,211.51,236,215.35,236.94Z" transform="translate(0 0)"/><circle class="cls-4" cx="228.3" cy="217.44" r="3.61"/><circle class="cls-4" cx="197.62" cy="52.07" r="5.72"/><path class="cls-4" d="M213,150.14c-3.26.77-3.88,1.39-4.65,4.65-.76-3.26-1.39-3.88-4.65-4.65,3.26-.76,3.89-1.39,4.65-4.65C209.1,148.75,209.72,149.38,213,150.14Z" transform="translate(0 0)"/><path class="cls-4" d="M163,210.08c-2.33.55-2.77,1-3.32,3.33-.55-2.33-1-2.78-3.32-3.33,2.33-.55,2.77-1,3.32-3.32C160.21,209.09,160.65,209.53,163,210.08Z" transform="translate(0 0)"/><path class="cls-4" d="M370.83,136.83c-4,.94-4.74,1.7-5.68,5.68-.93-4-1.69-4.74-5.67-5.68,4-.94,4.74-1.7,5.67-5.68C366.09,135.13,366.85,135.89,370.83,136.83Z" transform="translate(0 0)"/><circle class="cls-4" cx="298.66" cy="51.39" r="5.72"/><path class="cls-4" d="M335.6,272.6c-4.37,1-5.21,1.86-6.24,6.24-1-4.38-1.86-5.21-6.24-6.24,4.38-1,5.21-1.86,6.24-6.24C330.39,270.74,331.23,271.57,335.6,272.6Z" transform="translate(0 0)"/><path class="cls-4" d="M393.59,163c-3.86.91-4.6,1.65-5.51,5.52-.91-3.87-1.65-4.61-5.52-5.52,3.87-.91,4.61-1.65,5.52-5.52C389,161.3,389.73,162,393.59,163Z" transform="translate(0 0)"/><circle class="cls-4" cx="323.99" cy="38.86" r="5.72"/><circle class="cls-4" cx="253.27" cy="275.64" r="4.65"/><path class="cls-4" d="M227,44.71c-3.89.91-4.63,1.66-5.55,5.54-.91-3.88-1.65-4.63-5.54-5.54,3.89-.92,4.63-1.66,5.54-5.55C222.32,43.05,223.06,43.79,227,44.71Z" transform="translate(0 0)"/><circle class="cls-4" cx="265.79" cy="53.22" r="6.14"/><path class="cls-4" d="M189.15,169.18c-3.18.75-3.79,1.36-4.54,4.54-.75-3.18-1.35-3.79-4.54-4.54,3.19-.75,3.79-1.36,4.54-4.54C185.36,167.82,186,168.43,189.15,169.18Z" transform="translate(0 0)"/><path class="cls-4" d="M280.54,206.94c-3.31.78-3.94,1.41-4.72,4.72-.78-3.31-1.41-3.94-4.72-4.72,3.31-.78,3.94-1.41,4.72-4.72C276.6,205.53,277.23,206.16,280.54,206.94Z" transform="translate(0 0)"/><path class="cls-4" d="M367.44,167.64c-4.59,1.08-5.47,2-6.55,6.54-1.08-4.59-1.95-5.46-6.54-6.54,4.59-1.08,5.46-2,6.54-6.54C362,165.68,362.85,166.56,367.44,167.64Z" transform="translate(0 0)"/><path class="cls-4" d="M286.08,73.56c-3.27.77-3.89,1.4-4.66,4.67-.77-3.27-1.39-3.9-4.66-4.67,3.27-.77,3.89-1.39,4.66-4.66C282.19,72.17,282.81,72.79,286.08,73.56Z" transform="translate(0 0)"/><path class="cls-4" d="M348,79.5c-3.57.84-4.25,1.52-5.09,5.1-.85-3.58-1.53-4.26-5.1-5.1,3.57-.84,4.25-1.52,5.1-5.1C343.79,78,344.47,78.66,348,79.5Z" transform="translate(0 0)"/><circle class="cls-4" cx="367.64" cy="13.27" r="4.88"/><circle class="cls-4" cx="283.14" cy="33.44" r="5.61"/><circle class="cls-4" cx="309.51" cy="16.63" r="3.66"/><path class="cls-4" d="M362,101.9c-4.34,1-5.16,1.84-6.18,6.18-1-4.34-1.85-5.16-6.19-6.18,4.34-1,5.17-1.85,6.19-6.19C356.87,100.05,357.69,100.88,362,101.9Z" transform="translate(0 0)"/><circle class="cls-4" cx="260.16" cy="16.46" r="5.27"/><circle class="cls-4" cx="173.96" cy="52.26" r="4.14"/><path class="cls-4" d="M274.71,177.37c-2.75.65-3.28,1.17-3.93,3.93-.65-2.76-1.17-3.28-3.93-3.93,2.76-.65,3.28-1.17,3.93-3.93C271.43,176.2,272,176.72,274.71,177.37Z" transform="translate(0 0)"/><path class="cls-4" d="M240.06,15.7c-2.78.66-3.3,1.18-4,4-.65-2.78-1.18-3.3-3.95-4,2.77-.65,3.3-1.18,3.95-3.95C236.76,14.52,237.28,15.05,240.06,15.7Z" transform="translate(0 0)"/><path class="cls-4" d="M382,271c-3.07.73-3.65,1.31-4.37,4.37-.72-3.06-1.31-3.64-4.37-4.37,3.06-.72,3.65-1.3,4.37-4.37C378.36,269.73,378.94,270.31,382,271Z" transform="translate(0 0)"/><path class="cls-4" d="M279,102c-2.42.57-2.89,1-3.46,3.46-.57-2.43-1-2.89-3.46-3.46,2.43-.57,2.89-1,3.46-3.46C276.14,100.91,276.61,101.38,279,102Z" transform="translate(0 0)"/><circle class="cls-4" cx="342.14" cy="152.42" r="4.53"/></g></svg>