<?xml version="1.0" encoding="UTF-8"?>
<!DOCTYPE svg PUBLIC "-//W3C//DTD SVG 1.1//EN" "http://www.w3.org/Graphics/SVG/1.1/DTD/svg11.dtd">
<!-- Creator: CorelDRAW 2020 (64 Bit) -->
<svg xmlns="http://www.w3.org/2000/svg" xml:space="preserve" width="34.6057mm" height="13.764mm" version="1.1" style="shape-rendering:geometricPrecision; text-rendering:geometricPrecision; image-rendering:optimizeQuality; fill-rule:evenodd; clip-rule:evenodd"
viewBox="0 0 2399.89 954.53"
 xmlns:xlink="http://www.w3.org/1999/xlink"
 xmlns:xodm="http://www.corel.com/coreldraw/odm/2003">
 <defs>
  <style type="text/css">
   <![CDATA[
    .fil4 {fill:#00A4E0;fill-rule:nonzero}
    .fil3 {fill:#99CC33;fill-rule:nonzero}
    .fil0 {fill:#EE4C95;fill-rule:nonzero}
    .fil2 {fill:#F06277;fill-rule:nonzero}
    .fil1 {fill:#FFCC29;fill-rule:nonzero}
   ]]>
  </style>
 </defs>
 <g id="Camada_x0020_1">
  <metadata id="CorelCorpID_0Corel-Layer"/>
  <path class="fil0" d="M25.24 504.96c12.07,29.16 18.08,28.99 39.92,29.11l6.77 -0.2c24.82,-0.71 40.26,-14.78 40.29,-42.03l-0.1 -3.77c-1.71,-64.27 -5.77,-132.26 -10.55,-198.71l-3.56 -49.08c30.44,40.73 27.58,46.11 54.38,91.49 2.36,3.72 3.94,6.7 6.3,10.41 30.78,53.59 60.8,106.45 101.1,149.92 7.7,6.59 14.59,10.94 23.63,11.43 66.28,1.1 139.4,-278.72 160.11,-320.94l24.84 198.28c19.2,156.08 20.03,159.08 53.14,158.12 0.75,-0.02 1.5,-0.04 3,-0.09l3.77 -0.1c35.35,-1.03 40.57,-31.44 39.88,-57.15 -3.19,-120.22 -44.44,-482.99 -90.33,-481.66 -48.9,1.41 -66.68,40.53 -83.79,76.58 -0.71,1.54 -2.16,3.85 -2.87,5.38 -88.33,188.7 -106.78,230.85 -118.25,252.38 -17.16,-22.21 -47.1,-72.79 -77.01,-121.87 -55.11,-90.72 -115.72,-190.35 -145.81,-189.48 -26.33,0.76 -51.01,6.78 -50.05,43.07 3.68,138.37 13.87,295.46 22.66,428.38l2.55 10.52zm1153.78 16.14c1.31,13.79 13.81,30.67 33.5,32.06 23.49,1.66 53.57,-3.82 55.65,-33.36 1.29,-18.18 -0.67,-33.54 -1.97,-47.34 -2.17,-12.33 -3.64,-23.86 -2.95,-33.7 1.35,-18.95 3.5,-38.59 6.35,-57.41 2.97,-20.35 5.93,-40.69 7.32,-60.39l1.18 -16.66c1.93,-27.27 -0.69,-65.51 -40.08,-68.31 -15.15,-1.07 -39.86,4.03 -49.65,23.89 -0.05,11.41 -2.58,25.7 -1.87,37.17 10.15,157.53 -93.42,201.2 -84.73,78.49 1.39,-19.69 5.39,-43.77 23.31,-114.05 1.02,-14.4 -23.67,-42.02 -38.07,-43.04 -15.15,-1.07 -44.62,6.73 -51.27,25.28 -13.34,37.89 -21.64,79.93 -24.43,119.31 -4.83,68.18 16.86,159.54 86.55,164.47 37.86,2.68 57.62,-7.33 77.57,-20.39l1.96 4.71 1.62 9.25zm-345.03 -323.4c-72.67,1.68 -76.69,21.5 -78.9,45.97l-0.4 4.45c-1.54,17.05 5.35,31.88 24.63,33.62 17.8,1.6 33.63,-8.18 49.95,-6.71 39.3,3.54 63.66,31.9 69.01,63.78 -18.07,-6.87 -35.74,-9.94 -51.3,-11.35 -43.76,-3.95 -125.72,1.38 -132.8,79.99 -5.62,62.28 14.38,114.18 96.69,121.6 31.14,2.8 67.28,0.08 98.61,-15.78 2.25,33.09 57.01,55.97 80.04,24.4 29.02,-39.99 -20.25,-40.69 -1.3,-192.99 2.5,-85.74 -54.78,-138.75 -137.09,-146.17 -5.93,-0.53 -11.87,-1.07 -17.12,-0.79zm51.47 216.95c-2.67,29.66 -30.58,32.39 -51.35,30.51 -15.57,-1.4 -39.44,-10.29 -38.03,-25.85 1,-11.13 21.96,-11.48 36.05,-10.22 13.34,1.21 53.32,5.55 53.32,5.55zm-288.25 -106.86l0.76 161.36c0.01,1.49 -0.73,2.24 -0.73,2.98l0.03 5.95c0.15,29.74 6.97,57.97 45.63,57.79 33.47,-0.16 46.66,-40.38 46.54,-65.66l-0.12 -183.67c-0.11,-23.06 -12.89,-51.99 -43.38,-51.85 -48.34,0.23 -48.88,41.13 -48.73,73.11zm-14.95 -173.94c0.12,25.28 20.31,48.99 47.08,48.86 8.18,-0.04 49.79,-5.44 49.63,-41.88 -0.06,-11.9 -15.08,-43.81 -45.59,-47.38 -24.54,0.11 -51.28,7.68 -51.12,40.4z"/>
  <path class="fil1" d="M254.02 897.74c0.2,29.81 13.42,55.36 51.01,55.36 32.23,0 55.17,-12.07 54.94,-46.85 -0.1,-14.9 -21.84,-52.53 -48.7,-52.53 -38.37,0 -57.33,32.66 -57.25,44.02zm1085.97 -9.06c0.19,29.81 13.41,55.37 51.01,55.37 32.22,0 55.16,-12.07 54.93,-46.85 -0.1,-14.9 -21.84,-52.53 -48.69,-52.53 -38.37,0 -57.33,32.66 -57.25,44.02z"/>
  <path class="fil2" d="M532.06 950.11l6.08 -0.9c27.33,-4.04 75.69,-22.67 69.4,-63.36 -4.35,-28.07 -40.78,-22.67 -54.45,-20.65 -0.76,0.11 -0.76,0.11 -1.52,0.22 -29.61,4.38 -100.42,-1.64 -107.47,-47.25 -4.56,-29.46 28.29,-68.05 60.93,-72.88 13.67,-2.02 27.11,4.6 40.78,2.58 27.32,-4.04 34.37,-18.71 31.11,-39.77 -6.4,-41.38 -51.3,-45.51 -81.67,-41.02 -75.14,11.12 -156.57,87.03 -145.5,158.58 0.65,4.21 1.08,7.02 2.71,12.52 12.59,76.35 103.68,123.15 179.59,111.92zm375.02 -88.72c-0.18,2.12 0.4,4.31 0.22,6.44 1.21,30.77 1.88,67.91 34.73,70.94 22.16,2.05 37.16,-2.27 53.68,-24.27l5.25 -25.18c9.95,-53.26 27.35,-139.34 48.75,-137.35 0.76,0.07 2.3,0.21 4.58,0.42 16.81,1.55 12.78,57.5 10.11,88.62l-0.42 4.94c-2.98,34.66 -6.08,97.82 42.05,102.28 38.97,3.6 51.57,-26.6 64.3,-58.22 12.37,-99.37 41.82,-119.46 58.51,-116.49 21.66,34.79 17.62,72.92 14.52,108.99 -2.43,28.29 0.01,62.73 34.4,65.92 50.42,4.67 53.46,-30.69 57.04,-72.43l0.6 -7.07c4.55,-53.05 -1.36,-172.65 -93.81,-181.2 -50.44,-4.67 -71.36,59.7 -94.25,48.32 -26.6,-13.16 -18.93,-66.62 -75.24,-74.69 -33.49,-4.52 -60.65,15.78 -81.11,38.84l-0.08 -17.12c-1.35,-20.09 -7.94,-87 -47.67,-90.67 -24.45,-2.26 -46.44,20.65 -47.65,34.8 -1.27,14.86 1.27,30.06 3.88,44.56l7.61 189.62zm-168.45 93.14c181.86,0 222.15,-288.2 29.54,-288.2 -101.29,0 -172.23,63.17 -171.64,151.2 0.46,69.57 69.2,137.01 142.1,137.01zm-53.1 -138.42c-0.26,-38.34 37.12,-72.41 78.55,-72.41 21.48,0 44.72,31.94 44.92,61.04 0.26,39.04 -36.42,62.47 -70.95,62.47 -26.85,0 -52.28,-14.9 -52.52,-51.1z"/>
  <path class="fil3" d="M1469.02 909.56c3.51,28.89 18.44,43.61 47.41,40.29 19.82,-2.27 49.56,0.74 47.41,-23.3 6.19,0.01 13.04,-0.78 19.9,-1.57 68.61,-7.86 151.85,-48.14 141.15,-136.22 -14.38,-118.39 -116.03,-115.32 -174.57,-113.61 -6.94,0.09 -13.8,0.87 -20.84,0.25 -1.89,-15.51 -5.14,-48.71 -6.33,-58.58 -10.69,-88.09 -15.87,-92.5 -59.32,-87.52 -40.41,4.63 -43.09,27.09 -30.34,132.1 10.18,83.86 25.6,166.4 35.53,248.15zm264.77 0.32c-0.85,12.75 5.09,27.42 19.58,40.59l17.6 1.3c56.63,4.18 58.82,-28.4 61.39,-66.64 2.23,-33.29 -1.8,-64.91 0.49,-98.91 1.42,-21.25 44.22,-28.76 71.78,-26.73 5.35,0.4 10.67,1.5 14.44,2.49 2.3,0.17 6.84,1.22 6.84,1.22 20.66,1.53 52.61,-4.65 54.36,-30.86 3.34,-49.58 -40.1,-55.63 -73.77,-58.12 -20.67,-1.53 -39.31,1.37 -56.44,4.37 -0.76,-0.06 -2.34,0.53 -3.11,0.48l-6.98 0.92 0.1 -1.42c2.14,-31.87 1.7,-59.66 -38.86,-62.66l-5.35 -0.4c-26.79,-1.98 -49.16,10.6 -50.97,37.51 -16.13,240.11 -10.63,249.78 -11.11,256.86zm-193.37 -157.13c-0.1,-7.14 15.08,-3.16 19.65,-3.68 31.26,-3.59 72.36,10.28 76.12,41.28 4.45,36.65 -26.88,52.39 -50.5,55.1 -9.15,1.05 -18.39,1.39 -28.55,0.41l-16.72 -93.11z"/>
  <path class="fil4" d="M1320.95 509.03c0.32,20.65 16.77,48.18 52.78,49.35 41.5,-12.15 46.1,-23.9 47,-58.81 0.37,-47.62 -1,-61.16 -0.64,-74.65 9.63,-7.62 20.09,-13.63 28.81,-18.9 0,0 0.87,-0.76 0.87,-0.76l3.35 3.28c9.13,11.41 24.03,32.53 69.85,85.63l1.68 1.64c22.34,31.69 39.73,56.08 71.44,57.11 31.72,1.03 52.67,-12.59 53.47,-43.52 -96.92,-134.14 -101.95,-138.27 -122.71,-165.15 46.42,-36.6 91.96,-72.42 92.62,-97.8 0.66,-25.39 -12.52,-46.46 -44.24,-47.49 -10.29,-0.33 -19.76,0.94 -32.87,10.05l-113.13 94.75 0.02 -0.79 -13.15 10.69c-6.21,-58.16 -8.18,-114.59 -4.13,-171.61 1.32,-18.22 2.66,-36.44 3.11,-53.88 0.55,-21.42 -17.63,-48.2 -46.78,-49.15 -54.01,-1.76 -56.43,58.5 -57.54,101.33l-0.1 3.97c-1.5,57.9 1.25,117.53 3.99,177.16 2.85,55.67 6.44,116.12 6.32,186.77l-0.02 0.8zm830.7 -25.8c1.75,34.87 18.86,50.81 43.79,51.3 30.87,16.14 68.81,19.24 93.66,18.17 67.7,-2.95 114.09,-36.73 110.6,-106.47 -3.66,-72.91 -60.81,-116.49 -126.47,-141.43 -2.61,-0.69 -4.36,-1.4 -6.12,-2.12l-20.96 -7.03c13.08,-13.27 79.93,1.3 94.7,4.63 27.3,-3.57 40.74,-9.72 39.02,-43.79 -2.55,-50.72 -84.59,-59.86 -119.72,-58.33 -48.84,2.12 -124.04,60.99 -121.54,110.92 3.02,60.23 54.57,77.84 95.61,91.14 23.65,9.31 59.11,14.11 60.62,44.22 0.4,7.93 -5.41,12.15 -12.26,12.45 -12.85,0.56 -29.54,-6.66 -44.46,-13.15 -14.06,-6.54 -26.38,-12.36 -39.23,-11.8 -24.85,1.07 -39.64,14.42 -47.44,47.33l0.2 3.96zm-81.82 101.52c45.42,-1.74 61.64,-3.95 58.39,-76.09 -6.28,-139.51 3.63,-262.97 -2.58,-400.89 -1.6,-35.67 -7.78,-58.46 -51.49,-56.79 -42.85,1.64 -48.93,38.41 -47.22,76.45 1.93,42.81 2.86,63.41 2.96,84.85 -13.82,-1.85 -27.53,-1.32 -43.82,-0.7 -83.14,3.18 -198.28,58.41 -192.78,180.48 4.67,103.85 104.95,138.12 188.95,134.9 18.85,-0.72 33.38,-2.07 47.81,-5.8 0.15,3.17 -0.6,5.58 -0.46,8.74 -0.51,27.02 -1.75,56.45 40.24,54.84zm-78.48 -274.92c11.15,-0.42 25.76,-0.19 39.61,2.45 2.96,65.79 4.17,92.75 3.42,114.22l-70.92 7.48c-44.57,1.71 -69,-25.94 -70.28,-54.48 -1.46,-32.5 27.04,-66.94 94.75,-69.54l3.43 -0.13zm-330.62 -8.7l8.63 171.97c0.08,1.59 -0.74,2.41 -0.69,3.21l0.32 6.34c1.59,31.7 10.8,61.48 55.36,59.54 38.56,-1.68 51.85,-45.15 50.49,-72.09l-8.97 -195.78c-1.23,-24.57 -17.35,-54.84 -52.48,-53.32 -55.71,2.43 -54.37,46.05 -52.66,80.12zm-25.58 -184.73c1.35,26.94 25.76,51.29 56.61,49.95 9.42,-0.41 57.13,-8.04 55.19,-46.87 -0.64,-12.68 -19.49,-46.01 -54.82,-48.45 -28.27,1.23 -58.73,10.5 -56.98,45.37z"/>
 </g>
</svg>
